<?xml version="1.0" encoding="utf-8"?>
<!-- Generator: Adobe Illustrator 24.0.2, SVG Export Plug-In . SVG Version: 6.00 Build 0)  -->
<svg version="1.1" xmlns="http://www.w3.org/2000/svg" xmlns:xlink="http://www.w3.org/1999/xlink" x="0px" y="0px"
	 viewBox="0 0 100 100" style="enable-background:new 0 0 100 100;" xml:space="preserve">
<style type="text/css">
	.st0{fill:#FC008B;}
	.st1{fill:#2D2861;}
	.st2{fill:#FCC13F;}
	.st3{fill:#F7A491;}
	.st4{opacity:0.5;fill:#F47458;}
	.st5{fill:#FFA42F;}
	.st6{fill:#F48C7F;}
	.st7{fill:#F79C8D;}
	.st8{fill:#F47458;}
	.st9{fill:#FEE2BF;}
</style>
<g id="Слой_2">
</g>
<g id="Layer_1">
	<g>
		<path class="st0" d="M58.74,15.23c0.14-0.55,0.3-1.09,0.88-1.33c0.5-0.2,1.09,0.01,1.42,0.42c0.95,1.19-0.96,3.37-2.13,4.36
			c-0.33,0.28-0.8,0.5-0.97,0.91c0.04-0.06,0.07-0.12,0.11-0.18c-0.05,0.06-0.1,0.12-0.15,0.17c-0.22,0.25-0.01,0.68,0.34,0.58
			c0.45-0.13,0.47-0.09,1.23-0.71c0.35-0.29,0.69-0.6,1-0.94c0.63-0.68,1.22-1.45,1.57-2.32c0.87-2.19-1.06-3.77-2.65-3.2
			c-0.84,0.3-1.68,1.29-1.4,2.24C58.09,15.59,58.64,15.62,58.74,15.23L58.74,15.23z"/>
	</g>
	<g>
		<path class="st0" d="M58.16,22.78c0.61,0,0.61-0.95,0-0.95C57.55,21.83,57.55,22.78,58.16,22.78L58.16,22.78z"/>
	</g>
	<g>
		<path class="st0" d="M52.18,10.11c-0.36-0.96-0.1-2.19,0.79-2.79c0.86-0.58,2.09-0.4,2.81,0.33c0.93,0.95,0.77,2.65,0.39,3.8
			c-0.21,0.63-0.53,1.24-0.96,1.75c-0.47,0.56-1.03,1.02-1.57,1.51c-1.1,1.01-2.36,2.63-1.61,4.19c0.19,0.4,0.75,0.1,0.67-0.28
			c-0.46-2.38,2.31-3.46,3.6-5.4c0.42-0.63,0.72-1.35,0.89-2.08c0.33-1.44,0.25-3.28-0.95-4.31c-1-0.85-2.56-1.07-3.69-0.33
			c-1.25,0.82-1.79,2.57-1.09,3.91C51.68,10.79,52.34,10.53,52.18,10.11L52.18,10.11z"/>
	</g>
	<path class="st0" d="M54.04,21.31c0,0.47-0.38,0.84-0.84,0.84c-0.47,0-0.84-0.38-0.84-0.84c0-0.47,0.38-0.84,0.84-0.84
		C53.66,20.47,54.04,20.85,54.04,21.31z"/>
	<g>
		<path class="st1" d="M58.9,27.57c-1.11-1.79-3.07-3.13-5.25-3.13c-3.92-0.01-6.25,1.86-7.54,3.98c-0.04,0.07-0.08,0.14-0.13,0.21
			c-2.97,4.89-4.6,8.36-9.84,10.5c-12.28,5.03-9.49,18.55-1.85,23.49c12.11,7.83,19.8,0.11,23.97-9.19
			C64.74,39.02,59.69,28.84,58.9,27.57z"/>
		<path class="st0" d="M45.45,71.92c0,0-2.92,4.95-4.06,9.4c-0.79,3.07-1.19,12.33-1.19,12.33h24.89c0,0-2.78-18.52-8-20.89
			C51.88,70.39,45.45,71.92,45.45,71.92z"/>
		<path class="st2" d="M60.07,46.37c-3.61-0.34-13.4,0.55-17.84,1.26c-0.63,0.1,3.08,22.13,2.06,26l-2.07,4.23
			c0,0,12.45,2.67,18.7-0.71l-3.5-5.34C58.05,68.97,62.84,46.63,60.07,46.37z"/>
		<path class="st3" d="M48.28,40.66c0,0-0.54,13.14,2.58,13.41c3.12,0.27,3.2-7.74,3.24-8.72l0.22-5.35L48.28,40.66z"/>
		<path class="st4" d="M48.25,43.45c1.99,2.33,4.88,1.97,5.91,0.45l0.16-3.91l-6.04,0.66C48.28,40.66,48.23,41.82,48.25,43.45z"/>
		<path class="st3" d="M60.32,74.96c1.54-0.5,7.22-26.77-0.65-28.62c0,0,0.18,0.58-0.09,5.42c-0.32,5.64-1.98,18.08-1.98,18.08
			s-7.1-1.77-12.69-1.14l-4.7,2.73l-0.72,3.05c0,0,1.7,1.7,2.05,1.7c0.36,0-0.58-1.5-0.58-1.5s0.88,0.88,1.09,0.66
			c0.22-0.22-0.39-1.39-0.39-1.39l3.39-1.8C45.04,72.16,58.78,75.46,60.32,74.96z"/>
		<path class="st5" d="M59.65,46.34c0,0-0.23,0.05-0.29,5.42c-0.03,2.89-0.49,7.55-0.94,11.41c1.74-0.1,4.21,0,5.9,0.24
			C65.62,55.35,64.9,46.52,59.65,46.34z"/>
		<path class="st6" d="M38.27,53.24c-0.07,5.48,0.61,13.82,4.11,18.55c0.91,1.23,2.66-2.3,2.66-2.3s-1.35-22.07-2.82-21.84
			C40.88,47.85,38.32,48.73,38.27,53.24z"/>
		<path class="st5" d="M44.69,64.49c-0.5-6.49-1.46-17.01-2.47-16.86c-1.34,0.21-4.39,1.09-4.45,5.6
			c-0.04,3.62,0.24,8.68,1.45,12.93c1.09-0.63,2.71-1.4,3.99-1.48C43.71,64.66,44.2,64.58,44.69,64.49z"/>
		<g>
			<path class="st6" d="M48.52,41.97c0,0-0.16,0.48-0.28,1.13c-0.11,0.65,0.14,1.28-0.36,1.91c-0.49,0.63,1.32,4.43,1.32,4.43
				s0.38-1.4,0.22-2.6c-0.16-1.2,0.04-4.18,0.29-4.43C49.96,42.17,48.52,41.97,48.52,41.97z"/>
			<path class="st7" d="M46.79,39.25l-1.33,1.45l-0.95,1.31c0,0,0.23,2.37,0.1,2.79c-0.13,0.42-0.06,0.71,0.09,1.26
				s1.14,3.23,1.2,4.26c0,0-1.82,5.64-2.24,6.63c-0.42,0.99-2.23,7.85-2.61,9.68c-0.25,1.22,0.81,5.31,1.98,5.81
				c1.14,0.49,2.5,0.66,3.61-5.81c0.28-1.64,2.17-14.42,2.17-14.95c0-0.53,0.53-1.12,0.57-2.23c0.05-1.31-1.26-2.79-1.26-2.79
				l0.86-1.39l0.76-0.1c0,0,0.83,0.83,1.07,0.59c0.24-0.24-0.44-1.01-0.44-1.01s0.27,0.32,0.49,0.1c0.22-0.22-1.02-1.64-1.02-1.64
				l-1.88-0.88l-0.38,0.06l-1.63,1.52l-0.09-1.79l0.68-1.27C46.55,40.85,47.82,39.51,46.79,39.25z"/>
			<path class="st8" d="M50.22,44.67c-0.06-0.03-0.12-0.05-0.18-0.08c-0.06-0.03-0.12-0.06-0.17-0.09
				c-0.06-0.03-0.12-0.06-0.17-0.09c-0.06-0.03-0.11-0.06-0.17-0.09l0.04,0.01c-0.12,0.01-0.23,0.01-0.35,0.02
				c-0.12,0-0.23,0.01-0.35,0.01l0.06-0.02c-0.24,0.2-0.5,0.4-0.75,0.59c-0.13,0.09-0.26,0.19-0.39,0.28
				c-0.13,0.09-0.26,0.18-0.4,0.26c0.11-0.12,0.22-0.23,0.34-0.34c0.12-0.11,0.23-0.22,0.35-0.32c0.24-0.21,0.48-0.41,0.73-0.61
				l0.03-0.02l0.03,0c0.12,0,0.23,0,0.35,0.01c0.12,0,0.23,0.01,0.35,0.02l0.02,0l0.01,0.01c0.05,0.04,0.11,0.07,0.16,0.11
				c0.05,0.04,0.11,0.07,0.16,0.11c0.05,0.04,0.1,0.08,0.15,0.12C50.12,44.59,50.17,44.63,50.22,44.67z"/>
			<path class="st8" d="M50.22,44.45c-0.06-0.07-0.11-0.13-0.17-0.2l-0.16-0.21l-0.16-0.21l-0.16-0.21l0.04,0.03
				c-0.11-0.03-0.21-0.06-0.32-0.09c-0.11-0.03-0.21-0.06-0.32-0.09c-0.21-0.06-0.42-0.13-0.63-0.2l0.08-0.01l-0.32,0.21l-0.32,0.2
				c-0.11,0.07-0.22,0.13-0.33,0.2c-0.11,0.07-0.22,0.13-0.33,0.19c0.09-0.09,0.19-0.17,0.29-0.25c0.1-0.08,0.2-0.16,0.3-0.24
				l0.3-0.23l0.3-0.23l0.03-0.03l0.05,0.01c0.21,0.06,0.42,0.13,0.63,0.19c0.1,0.03,0.21,0.07,0.31,0.1
				c0.1,0.04,0.21,0.07,0.31,0.11l0.03,0.01l0.01,0.02l0.14,0.23l0.13,0.23l0.13,0.23C50.14,44.3,50.18,44.37,50.22,44.45z"/>
		</g>
		<path class="st3" d="M47.14,29.42c0,0-0.82,1.85-0.82,5.7s0.93,6.06,2.72,7.35c1.8,1.28,3.87,0.71,4.88,0
			c1.82-1.29,3.6-6.06,3.08-9.46C56.49,29.62,54.95,22.94,47.14,29.42z"/>
		<path class="st1" d="M49.86,25.54c-0.18,0-2.54,0.93-3.67,3.34c-1.13,2.42,0,5.7,0,5.7s0.86-2.16,1.59-2.34
			c0.73-0.18,3.5,0.72,4.61-0.39c1.1-1.1,2.47-3.39,2.47-3.39s-0.27,2.92-1.1,3.75c-0.84,0.84,2.52,1.31,3.33,0.28
			c0.81-1.03,1.2,3.21,1.2,3.21s0.41-5.45-2.18-8.25C53.48,24.66,49.86,25.54,49.86,25.54z"/>
	</g>
	<path class="st9" d="M83.91,93.95H22.3c-0.16,0-0.3-0.13-0.3-0.3s0.13-0.3,0.3-0.3h61.61c0.16,0,0.3,0.13,0.3,0.3
		S84.07,93.95,83.91,93.95z"/>
</g>
</svg>
