<?xml version="1.0" encoding="utf-8"?>
<!-- Generator: Adobe Illustrator 24.0.2, SVG Export Plug-In . SVG Version: 6.00 Build 0)  -->
<svg version="1.1" xmlns="http://www.w3.org/2000/svg" xmlns:xlink="http://www.w3.org/1999/xlink" x="0px" y="0px"
	 viewBox="0 0 100 100" style="enable-background:new 0 0 100 100;" xml:space="preserve">
<style type="text/css">
	.st0{fill:url(#SVGID_1_);}
	.st1{fill:#BDD0FB;}
	.st2{fill:#DCE5FE;}
	.st3{fill:url(#SVGID_2_);}
	.st4{fill:#91B3FA;}
	.st5{fill:url(#SVGID_3_);}
	.st6{fill:#7D97F4;}
	.st7{opacity:0.87;fill:#FFFFFF;}
	.st8{fill:url(#SVGID_4_);}
	.st9{fill:url(#SVGID_5_);}
	.st10{fill:url(#SVGID_6_);}
	.st11{fill:url(#SVGID_7_);}
	.st12{fill:url(#SVGID_8_);}
	.st13{fill:url(#SVGID_9_);}
	.st14{fill:url(#SVGID_10_);}
	.st15{fill:url(#SVGID_11_);}
	.st16{fill:#FFFFFF;}
	.st17{fill:url(#SVGID_12_);}
	.st18{fill:url(#SVGID_13_);}
	.st19{fill:url(#SVGID_14_);}
	.st20{fill:url(#SVGID_15_);}
	.st21{fill:url(#SVGID_16_);}
	.st22{fill:url(#SVGID_17_);}
	.st23{fill:url(#SVGID_18_);}
	.st24{fill:url(#SVGID_19_);}
	.st25{fill:url(#SVGID_20_);}
	.st26{fill:url(#SVGID_21_);}
	.st27{fill:url(#SVGID_22_);}
	.st28{fill:url(#SVGID_23_);}
	.st29{opacity:0.6;fill:#FFFFFF;}
	.st30{fill:url(#SVGID_24_);}
	.st31{fill:url(#SVGID_25_);}
	.st32{fill:url(#SVGID_26_);}
	.st33{fill:url(#SVGID_27_);}
	.st34{fill:url(#SVGID_28_);}
	.st35{fill:url(#SVGID_29_);}
	.st36{fill:url(#SVGID_30_);}
	.st37{fill:url(#SVGID_31_);}
	.st38{fill:url(#SVGID_32_);}
	.st39{fill:url(#SVGID_33_);}
	.st40{fill:url(#SVGID_34_);}
	.st41{fill:url(#SVGID_35_);}
	.st42{fill:url(#SVGID_36_);}
	.st43{fill:url(#SVGID_37_);}
	.st44{fill:url(#SVGID_38_);}
	.st45{fill:url(#SVGID_39_);}
	.st46{fill:url(#SVGID_40_);}
	.st47{fill:url(#SVGID_41_);}
	.st48{fill:url(#SVGID_42_);}
	.st49{fill:url(#SVGID_43_);}
	.st50{fill:url(#SVGID_44_);}
	.st51{fill:url(#SVGID_45_);}
	.st52{fill:url(#SVGID_46_);}
	.st53{fill:url(#SVGID_47_);}
	.st54{fill:url(#SVGID_48_);}
	.st55{fill:url(#SVGID_49_);}
	.st56{fill:url(#SVGID_50_);}
	.st57{fill:url(#SVGID_51_);}
	.st58{fill:url(#SVGID_52_);}
	.st59{fill:url(#SVGID_53_);}
	.st60{fill:url(#SVGID_54_);}
	.st61{fill:url(#SVGID_55_);}
	.st62{fill:url(#SVGID_56_);}
	.st63{fill:url(#SVGID_57_);}
	.st64{fill:url(#SVGID_58_);}
	.st65{fill:url(#SVGID_59_);}
	.st66{fill:url(#SVGID_60_);}
	.st67{fill:url(#SVGID_61_);}
	.st68{fill:url(#SVGID_62_);}
	.st69{fill:url(#SVGID_63_);}
	.st70{fill:url(#SVGID_64_);}
	.st71{fill:url(#SVGID_65_);}
	.st72{fill:url(#SVGID_66_);}
	.st73{fill:url(#SVGID_67_);}
	.st74{fill:url(#SVGID_68_);}
	.st75{fill:url(#SVGID_69_);}
	.st76{fill:url(#SVGID_70_);}
	.st77{fill:url(#SVGID_71_);}
	.st78{fill:url(#SVGID_72_);}
	.st79{fill:url(#SVGID_73_);}
	.st80{fill:url(#SVGID_74_);}
	.st81{fill:url(#SVGID_75_);}
	.st82{fill:url(#SVGID_76_);}
	.st83{fill:url(#SVGID_77_);}
	.st84{fill:url(#SVGID_78_);}
	.st85{fill:url(#SVGID_79_);}
	.st86{fill:url(#SVGID_80_);}
	.st87{fill:url(#SVGID_81_);}
	.st88{fill:url(#SVGID_82_);}
</style>
<g id="Background">
</g>
<g id="Illustration">
	<g>
		
			<linearGradient id="SVGID_1_" gradientUnits="userSpaceOnUse" x1="-1696.2079" y1="57.5409" x2="-1605.8431" y2="57.5409" gradientTransform="matrix(-1 0 0 1 -1601 0)">
			<stop  offset="0" style="stop-color:#DAE3FE"/>
			<stop  offset="1" style="stop-color:#E9EFFD"/>
		</linearGradient>
		<path class="st0" d="M71.5,31.31c1.42,0.42,3.53,2.33,5.39,5.39c2.28,3.75,3.64,4.08,6.87,2.23c3.23-1.85,7.02-0.61,9.77,4.32
			c2.75,4.93-2.06,8.76-6.52,14.76c-4.46,6,4.44,4.45,7.33,11.46c2.88,7.01-1.18,14.87-14.56,14.78
			c-13.4-0.09-33.65,0.09-33.65,0.09S27.34,85.99,20.5,81.7c-6.84-4.28,1.57-6.36-4.79-9.1c-6.36-2.74-13-2.92-10.22-10
			c2.78-7.08,6.72-5.61,9.26-7.5c2.54-1.89,4.07-3.95,0.44-7.31c-3.63-3.37-6.41-5.64-4.58-10.1c2.63-6.4,9.03-7.23,16.05-4.51
			c7.02,2.71,8.22,6.19,19.81,4.18C52.94,36.24,59.45,27.73,71.5,31.31z"/>
		<g>
			<path class="st1" d="M68.18,83.07c0.05,0.09,0.18,0.03,0.16-0.07c-0.32-1.42-1.05-5.98,2.33-8.17c3.94-2.56,10.73-3.66,6.57-19.1
				c-0.15-0.57-0.8-0.83-1.3-0.52c-2.31,1.41-7.87,5.31-8.16,10.47c-0.37,6.54,0.76,7.92,0.18,10.33
				C66.93,80.27,67.72,82.31,68.18,83.07z"/>
			<g>
				<path class="st1" d="M66.4,83.41c-0.02,0.06-0.11,0.04-0.1-0.02c0.37-2.54,1.43-10.56,1.12-16.96
					c-0.36-7.72-1.74-11.11-2.34-15.04c-0.6-3.93,1.89-8.91,8.56-7.3c5.44,1.31,9.72,2.21,11.73,1.92c0.38-0.06,0.67,0.35,0.5,0.69
					c-1.15,2.29-4.28,7.46-9.2,7.88c-6.34,0.53-6.43-1.21-7.76,0.48c-1.33,1.68-1.27,3.33-1.16,6.43
					C67.83,64.47,68.25,76.24,66.4,83.41z"/>
				<path class="st2" d="M67.18,58.96c-0.19-0.48-0.34-0.95-0.47-1.44c-0.13-0.49-0.23-0.98-0.3-1.48c-0.14-1-0.17-2.02,0.01-3.03
					c0.09-0.5,0.24-1,0.45-1.47c0.21-0.47,0.49-0.91,0.83-1.3c0.34-0.39,0.74-0.72,1.17-1c0.21-0.13,0.42-0.27,0.64-0.39
					c0.22-0.13,0.44-0.24,0.66-0.36c0.45-0.22,0.92-0.42,1.4-0.58c0.48-0.16,0.97-0.28,1.47-0.35c0.5-0.08,1-0.11,1.51-0.11
					c0.5,0,1,0.04,1.5,0.08c0.99,0.1,1.97,0.24,2.96,0.29c0.98,0.06,1.97,0,2.94-0.17l0,0c0.04-0.01,0.08,0.02,0.09,0.06
					c0.01,0.04-0.02,0.08-0.06,0.09C81,48.01,80,48.09,79,48.06c-1-0.03-1.99-0.15-2.97-0.23c-0.98-0.08-1.97-0.09-2.93,0.07
					c-0.48,0.08-0.95,0.2-1.41,0.36c-0.46,0.16-0.91,0.36-1.34,0.58c-0.22,0.11-0.43,0.23-0.64,0.36c-0.21,0.12-0.42,0.26-0.62,0.39
					c-0.4,0.27-0.77,0.57-1.08,0.93c-0.63,0.72-1.01,1.63-1.17,2.58c-0.17,0.95-0.15,1.93-0.01,2.9c0.07,0.48,0.16,0.96,0.28,1.44
					c0.12,0.47,0.26,0.95,0.43,1.39l0,0.01c0.04,0.1-0.01,0.21-0.11,0.25C67.33,59.1,67.22,59.05,67.18,58.96z"/>
			</g>
			<g>
				<path class="st1" d="M67.56,82.9c-0.04,0.05-0.12,0.01-0.1-0.05c0.33-0.9,1.06-3.24,0.89-6.32c-0.22-3.96-3.13-13.52,4.39-15.25
					c6.63-1.52,10.55-1.86,12.38-3.15c0.27-0.19,0.63,0.01,0.62,0.34c-0.08,2.37-0.7,8.63-4.85,10.18
					c-5.14,1.93-10.13-0.18-11.77,1.67C67.54,72.11,70.22,79,67.56,82.9z"/>
				<path class="st2" d="M67.99,71.76c-0.03-0.43-0.04-0.85-0.03-1.28c0.01-0.43,0.04-0.85,0.08-1.28c0.09-0.85,0.25-1.69,0.5-2.52
					c0.13-0.41,0.28-0.82,0.46-1.21c0.18-0.39,0.41-0.77,0.65-1.13c0.26-0.36,0.54-0.69,0.87-1l0.26-0.21
					c0.04-0.03,0.08-0.07,0.13-0.1l0.14-0.1c0.09-0.06,0.18-0.13,0.28-0.18l0.29-0.16l0.07-0.04l0.08-0.03l0.15-0.07
					c0.1-0.04,0.2-0.1,0.31-0.13l0.31-0.11c0.1-0.04,0.21-0.06,0.32-0.09c0.42-0.11,0.86-0.17,1.29-0.2
					c0.87-0.07,1.73,0.05,2.56,0.15c0.83,0.11,1.65,0.19,2.46,0.07c0.81-0.12,1.58-0.45,2.29-0.88l0,0c0.03-0.02,0.08-0.01,0.1,0.02
					c0.02,0.03,0.01,0.07-0.02,0.09c-0.34,0.26-0.7,0.49-1.09,0.68c-0.39,0.19-0.8,0.34-1.22,0.43c-0.42,0.09-0.86,0.13-1.29,0.13
					c-0.43,0-0.86-0.03-1.28-0.07c-0.42-0.04-0.83-0.08-1.25-0.1c-0.41-0.02-0.82-0.02-1.22,0.02c-0.4,0.04-0.8,0.11-1.19,0.21
					c-0.1,0.03-0.2,0.05-0.29,0.09l-0.28,0.1c-0.1,0.03-0.18,0.08-0.27,0.12l-0.14,0.06l-0.07,0.03L71.9,63.1l-0.26,0.15
					c-0.09,0.05-0.16,0.11-0.25,0.17l-0.12,0.08c-0.04,0.03-0.08,0.06-0.12,0.09l-0.23,0.19c-0.29,0.27-0.55,0.57-0.79,0.9
					c-0.46,0.66-0.81,1.4-1.06,2.18c-0.12,0.39-0.24,0.79-0.33,1.19c-0.09,0.4-0.16,0.81-0.22,1.22c-0.12,0.82-0.17,1.65-0.17,2.47
					l0,0.01c0,0.1-0.08,0.19-0.19,0.19C68.08,71.94,68,71.86,67.99,71.76z"/>
			</g>
			<g>
				<path class="st1" d="M35.59,68.43c0,0,0.25-6.55-2.74-8.34c-2.99-1.8-8.71-2.97-8.79-12.38c-0.05-5.51-0.15-7.91-0.22-8.96
					c-0.03-0.41,0.34-0.73,0.74-0.65c2.85,0.58,12.09,2.93,13.95,9.29C40.73,54.92,35.59,68.43,35.59,68.43z"/>
				<path class="st2" d="M26.75,40.74c0.22,0.2,0.43,0.41,0.64,0.62c0.1,0.1,0.21,0.21,0.31,0.32c0.1,0.11,0.2,0.21,0.3,0.32
					c0.2,0.22,0.4,0.43,0.59,0.66l0.29,0.33l0.28,0.34l0.28,0.34l0.27,0.35c0.18,0.23,0.37,0.46,0.54,0.7
					c0.36,0.47,0.7,0.95,1.04,1.43c0.33,0.49,0.66,0.98,0.97,1.48L32.49,48l0.12,0.19l0.11,0.19l0.44,0.77l0.11,0.19l0.1,0.2
					l0.21,0.39l0.21,0.39l0.1,0.2l0.1,0.2c0.26,0.53,0.53,1.05,0.76,1.61c0.06,0.14,0.11,0.27,0.17,0.41
					c0.05,0.14,0.11,0.28,0.16,0.42l0.15,0.42l0.08,0.21l0.07,0.21l0.14,0.42l0.12,0.43c0.09,0.28,0.15,0.57,0.23,0.86
					c0.27,1.16,0.47,2.33,0.57,3.51c0.11,1.18,0.14,2.37,0.09,3.55c-0.02,0.59-0.07,1.18-0.13,1.77c-0.06,0.59-0.14,1.17-0.26,1.76
					c-0.02,0.11-0.13,0.18-0.23,0.15c-0.1-0.02-0.17-0.12-0.16-0.22l0-0.01c0.16-1.14,0.24-2.31,0.25-3.47
					c0.01-1.16-0.04-2.32-0.16-3.47c-0.12-1.15-0.32-2.3-0.59-3.42c-0.28-1.12-0.63-2.23-1.08-3.29c-0.92-2.12-2.06-4.17-3.32-6.13
					l-0.48-0.73c-0.16-0.24-0.33-0.48-0.5-0.72c-0.16-0.24-0.34-0.48-0.51-0.71l-0.26-0.35l-0.27-0.35
					c-0.7-0.93-1.45-1.83-2.25-2.68l0,0c-0.04-0.05-0.04-0.12,0.01-0.16C26.64,40.7,26.7,40.7,26.75,40.74z"/>
			</g>
			<g>
				<path class="st1" d="M36.48,82.64c0.47,0.23-4.42-5.87-5.98-15.46c-0.73-4.52-0.77-10.19-3.35-12.36
					c-2.15-1.81-9.44-0.63-11.83-0.19c-0.3,0.06-0.4,0.43-0.16,0.63c1.15,0.96,3.61,3.22,4.25,5.5c0.85,3.01,3.72,4.92,6.29,5.42
					c2.57,0.51,3.99,1.01,5.26,5.1C32.23,75.38,35.16,82,36.48,82.64z"/>
				<path class="st2" d="M18.68,55.9c1.54,0.06,3.06,0.44,4.47,1.1c0.7,0.33,1.36,0.75,1.96,1.25c0.6,0.5,1.13,1.09,1.55,1.75
					l0.16,0.25c0.05,0.08,0.1,0.17,0.14,0.26c0.05,0.09,0.1,0.17,0.14,0.26l0.13,0.26c0.17,0.34,0.34,0.68,0.51,1.03
					c0.33,0.69,0.66,1.38,0.97,2.08c0.63,1.4,1.21,2.81,1.7,4.27c0.01,0.04-0.01,0.08-0.05,0.1c-0.04,0.01-0.08-0.01-0.1-0.04l0,0
					c-0.29-0.7-0.59-1.41-0.9-2.1c-0.31-0.7-0.63-1.39-0.96-2.08c-0.33-0.69-0.66-1.38-1-2.06c-0.17-0.34-0.34-0.68-0.51-1.02
					l-0.13-0.26c-0.04-0.09-0.09-0.16-0.13-0.25c-0.05-0.08-0.09-0.17-0.14-0.24l-0.15-0.24c-0.4-0.63-0.91-1.19-1.47-1.68
					c-0.29-0.24-0.58-0.47-0.9-0.68l-0.12-0.08l-0.12-0.07c-0.08-0.05-0.16-0.1-0.24-0.15c-0.16-0.09-0.33-0.19-0.5-0.27
					c-0.67-0.35-1.38-0.61-2.11-0.82c-0.73-0.21-1.48-0.36-2.23-0.43l0,0c-0.03,0-0.06-0.03-0.06-0.07
					C18.62,55.92,18.65,55.9,18.68,55.9z"/>
			</g>
			<g>
				<path class="st1" d="M34.17,85.1c0.28,0.15-1.55-3-1.69-5.77c-0.14-2.77-0.77-7.5-3.16-10.33c-2.39-2.83-5.01-3.09-8.31-0.52
					c-2.75,2.14-4.46,3.23-5.47,3.43c-0.25,0.05-0.38,0.33-0.25,0.55c0.64,1.19,2.47,3.92,5.53,3.72c3.9-0.24,8.64-2.78,10.08-0.67
					c1.44,2.12,1.26,3.3,1.3,4.31C32.25,80.82,32.35,84.13,34.17,85.1z"/>
				<path class="st2" d="M22.13,71.88c0.22-0.21,0.44-0.39,0.68-0.57c0.24-0.18,0.48-0.35,0.73-0.51c0.5-0.31,1.04-0.58,1.62-0.77
					c0.29-0.09,0.58-0.16,0.89-0.2c0.3-0.04,0.61-0.04,0.92,0c0.08,0.01,0.15,0.02,0.23,0.04c0.08,0.02,0.15,0.03,0.23,0.05
					l0.43,0.13l0.42,0.16l0.41,0.2c0.54,0.28,1.02,0.67,1.43,1.12c0.41,0.45,0.72,0.97,0.99,1.5c0.07,0.13,0.13,0.27,0.19,0.41
					c0.06,0.14,0.11,0.27,0.17,0.41l0.14,0.42c0.05,0.14,0.08,0.28,0.12,0.43c0.16,0.57,0.27,1.15,0.37,1.73
					c0.01,0.04-0.02,0.07-0.06,0.08c-0.04,0.01-0.07-0.02-0.08-0.05l0,0c-0.14-0.57-0.27-1.14-0.47-1.68
					c-0.09-0.28-0.2-0.55-0.3-0.82c-0.05-0.13-0.12-0.26-0.18-0.4c-0.06-0.13-0.12-0.26-0.19-0.39c-0.27-0.51-0.59-0.98-0.97-1.4
					c-0.39-0.42-0.84-0.76-1.34-1.02l-0.38-0.18l-0.4-0.15l-0.41-0.12c-0.07-0.02-0.13-0.03-0.2-0.05c-0.07-0.02-0.14-0.02-0.2-0.03
					c-0.27-0.04-0.55-0.03-0.83,0c-0.28,0.03-0.56,0.09-0.83,0.17c-0.55,0.16-1.07,0.39-1.58,0.67c-0.25,0.14-0.5,0.28-0.75,0.44
					c-0.24,0.16-0.48,0.32-0.71,0.5l0,0c-0.03,0.02-0.08,0.02-0.1-0.01C22.1,71.94,22.1,71.9,22.13,71.88z"/>
			</g>
		</g>
		<g>
			<g>
				<linearGradient id="SVGID_2_" gradientUnits="userSpaceOnUse" x1="69.1793" y1="34.2662" x2="20.3672" y2="98.3794">
					<stop  offset="0" style="stop-color:#09005D"/>
					<stop  offset="1" style="stop-color:#1A0F91"/>
				</linearGradient>
				<path class="st3" d="M35.04,33.36l30.54,0.34c1.69,0.02,3.01,1.48,3.01,3.31l-0.03,45.28c0,1.27-1.03,2.32-2.26,2.32
					l-32.75,0.14c-1.16,0.01-2.1-0.96-2.1-2.15V37.22C31.46,35.07,33.06,33.34,35.04,33.36z"/>
				<path class="st4" d="M63.04,37.7H37.36c-1.08,0-1.94,0.89-1.94,1.94V77c0,1.05,0.86,1.86,1.94,1.86h25.67
					c1.08,0,1.96-0.81,1.96-1.86V39.63C64.99,38.58,64.11,37.7,63.04,37.7z"/>
			</g>
			<g>
				<linearGradient id="SVGID_3_" gradientUnits="userSpaceOnUse" x1="43.4569" y1="59.0494" x2="56.9433" y2="59.0494">
					<stop  offset="0" style="stop-color:#DAE3FE"/>
					<stop  offset="1" style="stop-color:#E9EFFD"/>
				</linearGradient>
				<path class="st5" d="M48.63,69.54v-1.64c-1.71-0.07-3.41-0.47-4.61-1c-0.43-0.19-0.65-0.67-0.53-1.12l0.42-1.53
					c0.15-0.56,0.76-0.85,1.3-0.63c1.19,0.5,2.67,0.9,4.26,0.9c1.65,0,2.88-0.56,2.88-1.71c0-1.04-0.95-1.65-3.25-2.27
					c-3.27-0.9-5.63-2.32-5.63-5.21c0-2.6,1.9-4.59,5.21-5.12v-1.64c0-0.53,0.43-0.96,0.96-0.96h0.97c0.53,0,0.96,0.43,0.96,0.96
					v1.48c1.59,0.06,2.74,0.33,3.66,0.66c0.47,0.16,0.73,0.67,0.6,1.15l-0.38,1.42c-0.15,0.55-0.73,0.85-1.26,0.65
					c-0.84-0.32-2.04-0.65-3.59-0.65c-1.96,0-2.52,0.81-2.52,1.54c0,0.9,1.18,1.51,3.72,2.29c3.64,1.09,5.15,2.6,5.15,5.32
					c0,2.49-1.85,4.73-5.43,5.29v1.84c0,0.53-0.43,0.96-0.96,0.96h-0.97C49.06,70.5,48.63,70.07,48.63,69.54z"/>
			</g>
		</g>
		<g>
			<g>
				<path class="st6" d="M87.54,58.12l-15.79-1.4c-0.64-0.06-1.13-0.59-1.14-1.23l-0.06-10.64c0-0.72,0.61-1.3,1.33-1.25l16.81,1.17
					c0.7,0.05,1.22,0.66,1.15,1.35l-0.97,10.88C88.83,57.67,88.22,58.18,87.54,58.12z"/>
				<path class="st7" d="M71.48,45.87l-0.1,9.19c0,0.4,0.3,0.74,0.69,0.78l15.14,1.5c0.43,0.04,0.81-0.27,0.84-0.7l0.87-9.83
					c0.04-0.43-0.29-0.81-0.73-0.84l-15.91-0.87C71.86,45.09,71.49,45.43,71.48,45.87z"/>
				<path class="st6" d="M78.66,53.9l8.57,0.5c0.09,0.01,0.15,0.08,0.15,0.17l-0.01,0.14c-0.01,0.08-0.08,0.15-0.17,0.14l-8.56-0.64
					c-0.09-0.01-0.15-0.08-0.14-0.17v0C78.5,53.96,78.57,53.89,78.66,53.9z"/>
				<path class="st6" d="M78.43,54.76l-0.01,0.06c-0.01,0.09,0.06,0.16,0.14,0.17l8.54,0.76c0.09,0.01,0.16-0.06,0.17-0.14
					l0.01-0.06c0.01-0.09-0.06-0.16-0.14-0.17l-8.54-0.76C78.51,54.61,78.44,54.67,78.43,54.76z"/>
				<path class="st6" d="M80.96,55.75l0,0.03c-0.01,0.09,0.06,0.16,0.14,0.17l5.95,0.53c0.09,0.01,0.16-0.06,0.17-0.14l0.01-0.12
					c0.01-0.09-0.06-0.16-0.14-0.17l-5.96-0.43C81.04,55.61,80.96,55.67,80.96,55.75z"/>
			</g>
			<g>
				
					<linearGradient id="SVGID_4_" gradientUnits="userSpaceOnUse" x1="107.9931" y1="-40.6107" x2="80.7498" y2="-18.44" gradientTransform="matrix(0.9998 0.0204 -0.0204 0.9998 -19.2144 74.5827)">
					<stop  offset="0" style="stop-color:#FE7062"/>
					<stop  offset="1" style="stop-color:#FF928E"/>
				</linearGradient>
				<path class="st8" d="M86.21,54.32l-18.63-0.38c-0.76-0.02-1.37-0.6-1.43-1.36L65.23,40.1c-0.06-0.85,0.61-1.57,1.46-1.57
					l19.81,0.03c0.82,0,1.48,0.67,1.46,1.49l-0.26,12.84C87.69,53.69,87.02,54.33,86.21,54.32z"/>
				<linearGradient id="SVGID_5_" gradientUnits="userSpaceOnUse" x1="71.9917" y1="19.17" x2="76.985" y2="46.5108">
					<stop  offset="0" style="stop-color:#FF928E"/>
					<stop  offset="1" style="stop-color:#FEB3B1"/>
				</linearGradient>
				<path class="st9" d="M66.4,41.23l0.61,10.79c0.03,0.47,0.41,0.84,0.88,0.85l17.88,0.55c0.5,0.02,0.92-0.38,0.93-0.89l0.24-11.6
					c0.01-0.51-0.41-0.93-0.92-0.92l-18.73,0.26C66.78,40.28,66.37,40.72,66.4,41.23z"/>
				
					<linearGradient id="SVGID_6_" gradientUnits="userSpaceOnUse" x1="111.4891" y1="-36.3161" x2="84.2449" y2="-14.1447" gradientTransform="matrix(0.9998 0.0204 -0.0204 0.9998 -19.2144 74.5827)">
					<stop  offset="0" style="stop-color:#FE7062"/>
					<stop  offset="1" style="stop-color:#FF928E"/>
				</linearGradient>
				<path class="st10" d="M75.46,50.08l10.09-0.1c0.1,0,0.19,0.08,0.19,0.19l0,0.16c0,0.1-0.08,0.18-0.18,0.18l-10.09-0.07
					c-0.1,0-0.18-0.08-0.18-0.19l0,0C75.28,50.16,75.36,50.08,75.46,50.08z"/>
				
					<linearGradient id="SVGID_7_" gradientUnits="userSpaceOnUse" x1="111.9542" y1="-35.7447" x2="84.71" y2="-13.5733" gradientTransform="matrix(0.9998 0.0204 -0.0204 0.9998 -19.2144 74.5827)">
					<stop  offset="0" style="stop-color:#FE7062"/>
					<stop  offset="1" style="stop-color:#FF928E"/>
				</linearGradient>
				<path class="st11" d="M75.26,51.1l0,0.07c0,0.1,0.08,0.19,0.18,0.19l10.08,0.21c0.1,0,0.19-0.08,0.19-0.18l0-0.07
					c0-0.1-0.08-0.19-0.18-0.19l-10.08-0.21C75.35,50.92,75.26,51,75.26,51.1z"/>
				
					<linearGradient id="SVGID_8_" gradientUnits="userSpaceOnUse" x1="112.9972" y1="-34.4631" x2="85.7531" y2="-12.2918" gradientTransform="matrix(0.9998 0.0204 -0.0204 0.9998 -19.2144 74.5827)">
					<stop  offset="0" style="stop-color:#FE7062"/>
					<stop  offset="1" style="stop-color:#FF928E"/>
				</linearGradient>
				<path class="st12" d="M78.3,52.07l0,0.03c0,0.1,0.08,0.19,0.18,0.19l7.02,0.14c0.1,0,0.19-0.08,0.19-0.18l0-0.14
					c0-0.1-0.08-0.19-0.18-0.19l-7.03-0.03C78.39,51.89,78.31,51.97,78.3,52.07z"/>
			</g>
			<g>
				<linearGradient id="SVGID_9_" gradientUnits="userSpaceOnUse" x1="59.7756" y1="43.1237" x2="84.9964" y2="43.1237">
					<stop  offset="0" style="stop-color:#4042E2"/>
					<stop  offset="1" style="stop-color:#4F52FF"/>
				</linearGradient>
				<path class="st13" d="M83.37,51.87H62.7c-0.84,0-1.54-0.64-1.62-1.47l-1.3-13.82c-0.09-0.94,0.64-1.76,1.59-1.78l21.97-0.42
					C84.25,34.36,85,35.1,85,36v14.24C85,51.14,84.27,51.87,83.37,51.87z"/>
				<linearGradient id="SVGID_10_" gradientUnits="userSpaceOnUse" x1="61.101" y1="43.4549" x2="83.8723" y2="43.4549">
					<stop  offset="0" style="stop-color:#DAE3FE"/>
					<stop  offset="1" style="stop-color:#E9EFFD"/>
				</linearGradient>
				<path class="st14" d="M61.1,37.81l0.92,11.95c0.04,0.52,0.47,0.92,0.99,0.93l19.84,0.21c0.56,0.01,1.01-0.45,1.01-1V37.02
					c0-0.57-0.47-1.02-1.04-1l-20.76,0.71C61.5,36.74,61.06,37.24,61.1,37.81z"/>
				<path class="st6" d="M71.7,37.7l11.19-0.33c0.11,0,0.21,0.09,0.21,0.2v0.18c0,0.11-0.09,0.2-0.2,0.2L71.7,38.1
					c-0.11,0-0.21-0.09-0.21-0.2l0,0C71.5,37.79,71.59,37.7,71.7,37.7z"/>
				<path class="st6" d="M71.5,38.84v0.08c0,0.11,0.09,0.2,0.2,0.2h11.19c0.11,0,0.2-0.09,0.2-0.2v-0.08c0-0.11-0.09-0.2-0.2-0.2
					H71.7C71.59,38.64,71.5,38.73,71.5,38.84z"/>
				<g>
					<path class="st6" d="M68.77,48.9c-0.05,0-0.09-0.04-0.09-0.09l0-0.27c0-0.05,0.04-0.09,0.09-0.09c0,0,0,0,0,0
						c0.05,0,0.09,0.04,0.09,0.09l0,0.27C68.86,48.86,68.82,48.9,68.77,48.9C68.77,48.9,68.77,48.9,68.77,48.9z M68.76,47.99
						c-0.05,0-0.09-0.04-0.09-0.09l0-0.27c0-0.05,0.04-0.09,0.09-0.09c0,0,0,0,0,0c0.05,0,0.09,0.04,0.09,0.09l0,0.27
						C68.85,47.94,68.81,47.99,68.76,47.99C68.76,47.99,68.76,47.99,68.76,47.99z M68.76,47.07c-0.05,0-0.09-0.04-0.09-0.09l0-0.27
						c0-0.05,0.04-0.09,0.09-0.09c0,0,0,0,0,0c0.05,0,0.09,0.04,0.09,0.09l0,0.27C68.85,47.03,68.81,47.07,68.76,47.07
						C68.76,47.07,68.76,47.07,68.76,47.07z M68.76,46.16c-0.05,0-0.09-0.04-0.09-0.09l0-0.27c0-0.05,0.04-0.09,0.09-0.09
						c0,0,0,0,0,0c0.05,0,0.09,0.04,0.09,0.09l0,0.27C68.85,46.12,68.81,46.16,68.76,46.16C68.76,46.16,68.76,46.16,68.76,46.16z"/>
				</g>
				<g>
					<path class="st6" d="M73.35,48.64c-0.05,0-0.09-0.04-0.09-0.09v-0.27c0-0.05,0.04-0.09,0.09-0.09c0.05,0,0.09,0.04,0.09,0.09
						v0.27C73.44,48.6,73.4,48.64,73.35,48.64z M73.35,47.73c-0.05,0-0.09-0.04-0.09-0.09v-0.27c0-0.05,0.04-0.09,0.09-0.09
						c0.05,0,0.09,0.04,0.09,0.09v0.27C73.44,47.68,73.4,47.73,73.35,47.73z M73.35,46.81c-0.05,0-0.09-0.04-0.09-0.09v-0.27
						c0-0.05,0.04-0.09,0.09-0.09c0.05,0,0.09,0.04,0.09,0.09v0.27C73.44,46.77,73.4,46.81,73.35,46.81z M73.35,45.9
						c-0.05,0-0.09-0.04-0.09-0.09v-0.27c0-0.05,0.04-0.09,0.09-0.09c0.05,0,0.09,0.04,0.09,0.09v0.27
						C73.44,45.86,73.4,45.9,73.35,45.9z M73.35,44.99c-0.05,0-0.09-0.04-0.09-0.09v-0.27c0-0.05,0.04-0.09,0.09-0.09
						c0.05,0,0.09,0.04,0.09,0.09v0.27C73.44,44.95,73.4,44.99,73.35,44.99z"/>
				</g>
				<g>
					<path class="st6" d="M76.85,49.39c-0.05,0-0.09-0.04-0.09-0.09l-0.01-0.16c0-0.05,0.04-0.09,0.09-0.09
						c0.05,0,0.09,0.04,0.09,0.09l0.01,0.16C76.94,49.35,76.9,49.39,76.85,49.39C76.85,49.39,76.85,49.39,76.85,49.39z M76.82,48.59
						c-0.05,0-0.09-0.04-0.09-0.09l-0.01-0.27c0-0.05,0.04-0.09,0.09-0.09c0.05,0,0.09,0.04,0.09,0.09l0.01,0.27
						C76.91,48.55,76.87,48.59,76.82,48.59C76.82,48.59,76.82,48.59,76.82,48.59z M76.79,47.68c-0.05,0-0.09-0.04-0.09-0.09
						l-0.01-0.27c0-0.05,0.04-0.09,0.09-0.09c0.05,0,0.09,0.04,0.09,0.09l0.01,0.27C76.89,47.63,76.85,47.68,76.79,47.68
						C76.79,47.68,76.79,47.68,76.79,47.68z M76.76,46.77c-0.05,0-0.09-0.04-0.09-0.09l-0.01-0.27c0-0.05,0.04-0.09,0.09-0.09
						c0.05,0,0.09,0.04,0.09,0.09l0.01,0.27C76.86,46.72,76.82,46.76,76.76,46.77C76.77,46.77,76.77,46.77,76.76,46.77z
						 M76.74,45.85c-0.05,0-0.09-0.04-0.09-0.09l-0.01-0.27c0-0.05,0.04-0.09,0.09-0.09c0.05,0,0.09,0.04,0.09,0.09l0.01,0.27
						C76.83,45.81,76.79,45.85,76.74,45.85C76.74,45.85,76.74,45.85,76.74,45.85z M76.71,44.94c-0.05,0-0.09-0.04-0.09-0.09
						l-0.01-0.27c0-0.05,0.04-0.09,0.09-0.09c0.05,0,0.09,0.04,0.09,0.09l0.01,0.27C76.8,44.9,76.76,44.94,76.71,44.94
						C76.71,44.94,76.71,44.94,76.71,44.94z M76.68,44.03c-0.05,0-0.09-0.04-0.09-0.09l-0.01-0.27c0-0.05,0.04-0.09,0.09-0.09
						c0.05,0,0.09,0.04,0.09,0.09l0.01,0.27C76.77,43.99,76.73,44.03,76.68,44.03C76.68,44.03,76.68,44.03,76.68,44.03z"/>
				</g>
				<g>
					<path class="st6" d="M80.17,48.88c-0.05,0-0.09-0.04-0.09-0.09v-0.27c0-0.05,0.04-0.09,0.09-0.09c0.05,0,0.09,0.04,0.09,0.09
						v0.27C80.26,48.84,80.22,48.88,80.17,48.88z M80.17,47.97c-0.05,0-0.09-0.04-0.09-0.09V47.6c0-0.05,0.04-0.09,0.09-0.09
						c0.05,0,0.09,0.04,0.09,0.09v0.27C80.26,47.93,80.22,47.97,80.17,47.97z M80.17,47.06c-0.05,0-0.09-0.04-0.09-0.09v-0.27
						c0-0.05,0.04-0.09,0.09-0.09c0.05,0,0.09,0.04,0.09,0.09v0.27C80.26,47.02,80.22,47.06,80.17,47.06z M80.17,46.14
						c-0.05,0-0.09-0.04-0.09-0.09v-0.27c0-0.05,0.04-0.09,0.09-0.09c0.05,0,0.09,0.04,0.09,0.09v0.27
						C80.26,46.1,80.22,46.14,80.17,46.14z M80.17,45.23c-0.05,0-0.09-0.04-0.09-0.09v-0.27c0-0.05,0.04-0.09,0.09-0.09
						c0.05,0,0.09,0.04,0.09,0.09v0.27C80.26,45.19,80.22,45.23,80.17,45.23z M80.17,44.32c-0.05,0-0.09-0.04-0.09-0.09v-0.27
						c0-0.05,0.04-0.09,0.09-0.09c0.05,0,0.09,0.04,0.09,0.09v0.27C80.26,44.28,80.22,44.32,80.17,44.32z M80.17,43.41
						c-0.05,0-0.09-0.04-0.09-0.09v-0.27c0-0.05,0.04-0.09,0.09-0.09c0.05,0,0.09,0.04,0.09,0.09v0.27
						C80.26,43.36,80.22,43.41,80.17,43.41z M80.17,42.49c-0.05,0-0.09-0.04-0.09-0.09v-0.27c0-0.05,0.04-0.09,0.09-0.09
						c0.05,0,0.09,0.04,0.09,0.09v0.27C80.26,42.45,80.22,42.49,80.17,42.49z M80.17,41.58c-0.05,0-0.09-0.04-0.09-0.09v-0.27
						c0-0.05,0.04-0.09,0.09-0.09c0.05,0,0.09,0.04,0.09,0.09v0.27C80.26,41.54,80.22,41.58,80.17,41.58z"/>
				</g>
				<g>
					<path class="st6" d="M63.86,49.96c-0.07,0-0.13-0.05-0.14-0.13l-0.94-11.05c-0.01-0.08,0.05-0.14,0.12-0.15
						c0.08-0.01,0.14,0.05,0.15,0.12l0.94,11.05c0.01,0.08-0.05,0.14-0.12,0.15C63.87,49.96,63.86,49.96,63.86,49.96z"/>
					<g>
						<polygon class="st6" points="62.51,39.36 62.93,38.85 63.43,39.28 63.4,38.88 62.9,38.46 62.47,38.96 						"/>
					</g>
				</g>
				<g>
					<path class="st6" d="M82.4,49.44H63.15c-0.08,0-0.14-0.06-0.14-0.14c0-0.08,0.06-0.14,0.14-0.14H82.4
						c0.08,0,0.14,0.06,0.14,0.14C82.54,49.38,82.48,49.44,82.4,49.44z"/>
					<g>
						<polygon class="st6" points="81.86,49.77 82.32,49.3 81.86,48.84 82.25,48.84 82.71,49.3 82.25,49.77 						"/>
					</g>
				</g>
				<g>
					<path class="st6" d="M64.66,46.26c-0.07,0-0.13-0.05-0.14-0.12c-0.01-0.07,0.04-0.14,0.12-0.15c0.1-0.01,10.18-1.39,15.7-5.46
						c0.06-0.05,0.15-0.03,0.19,0.03c0.04,0.06,0.03,0.15-0.03,0.19c-5.58,4.11-15.72,5.5-15.83,5.51
						C64.67,46.26,64.67,46.26,64.66,46.26z"/>
				</g>
				<g>
					<path class="st6" d="M80.47,41.37c0,0-0.01,0-0.01,0c-0.08-0.01-0.13-0.07-0.13-0.15l0.04-0.54l-0.76-0.05
						c-0.08,0-0.13-0.07-0.13-0.14c0-0.08,0.07-0.13,0.14-0.13l0.9,0.05c0.04,0,0.07,0.02,0.1,0.05c0.02,0.03,0.04,0.06,0.03,0.1
						l-0.05,0.68C80.6,41.31,80.54,41.37,80.47,41.37z"/>
				</g>
			</g>
		</g>
		<g>
			
				<linearGradient id="SVGID_11_" gradientUnits="userSpaceOnUse" x1="-495.5873" y1="419.1498" x2="-512.3344" y2="445.8912" gradientTransform="matrix(0.8862 -0.4632 0.4632 0.8862 266.3947 -560.507)">
				<stop  offset="0" style="stop-color:#4042E2"/>
				<stop  offset="1" style="stop-color:#4F52FF"/>
			</linearGradient>
			<path class="st15" d="M9.95,44.5l10.93-5.84c0.6-0.32,1.35-0.12,1.71,0.47l9.27,15.42c0.28,0.46,0.12,1.05-0.35,1.31L19.1,62.78
				c-0.44,0.24-0.99,0.08-1.23-0.36L9.35,46.47C8.97,45.76,9.24,44.88,9.95,44.5z"/>
			<path class="st16" d="M20.79,61.54L20.79,61.54l-1.41,0.73c-0.48,0.25-1.07,0.06-1.32-0.41l-1.13-2.12
				c-0.01-0.02,0-0.04,0.02-0.05c0.02-0.01,0.04,0,0.05,0.02l1.13,2.12c0.23,0.43,0.77,0.6,1.21,0.38l1.41-0.73
				c0.02-0.01,0.04,0,0.05,0.02C20.82,61.5,20.81,61.53,20.79,61.54z"/>
			<path class="st16" d="M16.63,59.11c-0.02,0.01-0.04,0-0.05-0.02l-0.18-0.34c-0.01-0.02,0-0.04,0.02-0.05c0,0,0,0,0,0
				c0.02-0.01,0.04,0,0.05,0.02l0.18,0.34C16.66,59.07,16.65,59.09,16.63,59.11C16.63,59.11,16.63,59.11,16.63,59.11z"/>
			<g>
				<path class="st4" d="M9.91,44.35c1.6-0.59,7.07-2.71,11.14-5.3c0.19-0.12,0.43-0.06,0.55,0.13l9.35,15.46
					c0.13,0.21,0.06,0.49-0.15,0.62c-1.73,1.06-8.86,5.39-11.63,6.52c-0.17,0.07-0.36,0-0.45-0.16L9.69,44.95
					C9.56,44.73,9.67,44.44,9.91,44.35z"/>
				<path class="st1" d="M10.29,44.68c1.54-0.57,6.8-2.61,10.72-5.1c0.18-0.11,0.42-0.06,0.53,0.12l9,14.88
					c0.12,0.2,0.06,0.47-0.14,0.59c-1.66,1.02-8.53,5.19-11.19,6.27c-0.16,0.07-0.35,0-0.43-0.15l-8.69-16.04
					C9.96,45.04,10.06,44.77,10.29,44.68z"/>
				<linearGradient id="SVGID_12_" gradientUnits="userSpaceOnUse" x1="12.1426" y1="43.303" x2="21.6674" y2="43.303">
					<stop  offset="0" style="stop-color:#DAE3FE"/>
					<stop  offset="1" style="stop-color:#E9EFFD"/>
				</linearGradient>
				<path class="st17" d="M21.57,41c0.08-0.04,0.11-0.12,0.08-0.18c-0.04-0.06-0.13-0.07-0.21-0.03l-9.24,4.84
					c-0.08,0.04-0.08,0.11,0.01,0.14l0.09,0.04c0.08,0.04,0.22,0.03,0.29-0.01L21.57,41z"/>
				<linearGradient id="SVGID_13_" gradientUnits="userSpaceOnUse" x1="12.4697" y1="43.9152" x2="21.9945" y2="43.9152">
					<stop  offset="0" style="stop-color:#DAE3FE"/>
					<stop  offset="1" style="stop-color:#E9EFFD"/>
				</linearGradient>
				<path class="st18" d="M12.53,46.25c-0.08,0.04-0.08,0.11,0.01,0.14l0.09,0.04c0.08,0.04,0.22,0.03,0.29-0.01l8.98-4.8
					c0.08-0.04,0.11-0.12,0.08-0.18c-0.04-0.06-0.13-0.07-0.21-0.03L12.53,46.25z"/>
				<path class="st16" d="M17.06,50.98C17.06,50.98,17.06,50.98,17.06,50.98l-1.22,0.69c-0.18,0.1-0.39,0.06-0.5-0.09l-0.69-0.95
					c-0.04-0.06-0.06-0.13-0.04-0.2c0.01-0.08,0.06-0.15,0.13-0.2l0,0c0.1-0.07,0.23-0.16,0.38-0.26c0.32-0.22,0.68-0.47,0.9-0.61
					c0,0,0,0,0,0c0.16-0.09,0.35-0.07,0.47,0.05c0.2,0.2,0.45,0.64,0.7,1.12C17.3,50.67,17.23,50.88,17.06,50.98z M14.81,50.32
					c-0.05,0.03-0.08,0.08-0.09,0.13c-0.01,0.04,0,0.08,0.02,0.11l0.69,0.95c0.07,0.1,0.22,0.12,0.35,0.05L17,50.88c0,0,0,0,0,0
					c0.12-0.07,0.16-0.2,0.11-0.31c-0.25-0.47-0.5-0.9-0.69-1.09c-0.08-0.08-0.23-0.09-0.34-0.02c-0.22,0.13-0.6,0.39-0.9,0.6
					C15.04,50.16,14.91,50.25,14.81,50.32L14.81,50.32z"/>
				<linearGradient id="SVGID_14_" gradientUnits="userSpaceOnUse" x1="14.9095" y1="50.5346" x2="16.9291" y2="50.5346">
					<stop  offset="0" style="stop-color:#DAE3FE"/>
					<stop  offset="1" style="stop-color:#E9EFFD"/>
				</linearGradient>
				<path class="st19" d="M15,50.35c0.24-0.16,0.76-0.54,1.02-0.69c0.11-0.07,0.25-0.05,0.33,0.03c0.16,0.16,0.37,0.53,0.56,0.88
					c0.06,0.1,0.01,0.24-0.11,0.31l-0.97,0.55c-0.12,0.07-0.26,0.04-0.34-0.06l-0.55-0.76C14.88,50.52,14.91,50.41,15,50.35z"/>
				<linearGradient id="SVGID_15_" gradientUnits="userSpaceOnUse" x1="17.4905" y1="47.8468" x2="24.1429" y2="47.8468">
					<stop  offset="0" style="stop-color:#DAE3FE"/>
					<stop  offset="1" style="stop-color:#E9EFFD"/>
				</linearGradient>
				<path class="st20" d="M17.56,49.29c-0.08,0.04-0.09,0.13-0.03,0.19l0.28,0.28c0.06,0.06,0.18,0.08,0.26,0.03l6-3.46
					c0.08-0.04,0.1-0.14,0.06-0.22l-0.1-0.16c-0.05-0.08-0.15-0.1-0.23-0.06L17.56,49.29z"/>
				
					<linearGradient id="SVGID_16_" gradientUnits="userSpaceOnUse" x1="-1093.092" y1="3538" x2="-1100.2126" y2="3550.1533" gradientTransform="matrix(0.8664 -0.4995 0.4995 0.8664 -804.3741 -3567.9009)">
					<stop  offset="0" style="stop-color:#FE7062"/>
					<stop  offset="1" style="stop-color:#FF928E"/>
				</linearGradient>
				<path class="st21" d="M15.14,50.48L15.14,50.48c0.06-0.1,0.19-0.14,0.3-0.08l0.48,0.29c0.05,0.03,0.11-0.01,0.1-0.07l-0.17-1.66
					c-0.01-0.08,0.1-0.12,0.14-0.04c0.23,0.41,0.56,1.23,0.29,2.24c0,0-0.43,0.07-1.08-0.4C15.11,50.7,15.09,50.58,15.14,50.48z"/>
				<path class="st16" d="M15.61,48.2C15.61,48.2,15.61,48.2,15.61,48.2l-1.22,0.69c-0.18,0.1-0.39,0.06-0.5-0.09l-0.69-0.95
					c-0.04-0.06-0.06-0.13-0.04-0.2c0.01-0.08,0.06-0.15,0.13-0.2l0,0c0.1-0.07,0.23-0.16,0.38-0.26c0.32-0.22,0.68-0.47,0.9-0.61
					c0,0,0,0,0,0c0.16-0.09,0.35-0.07,0.47,0.04c0.2,0.2,0.45,0.64,0.7,1.12C15.85,47.9,15.78,48.1,15.61,48.2z M13.36,47.54
					c-0.05,0.03-0.08,0.08-0.09,0.13c-0.01,0.04,0,0.08,0.02,0.11l0.69,0.95c0.07,0.1,0.22,0.12,0.35,0.05l1.21-0.68c0,0,0,0,0,0
					c0.12-0.07,0.16-0.2,0.11-0.31c-0.25-0.47-0.5-0.9-0.69-1.09c-0.08-0.08-0.23-0.09-0.34-0.02c-0.22,0.13-0.6,0.39-0.9,0.6
					C13.59,47.39,13.46,47.48,13.36,47.54L13.36,47.54z"/>
				<linearGradient id="SVGID_17_" gradientUnits="userSpaceOnUse" x1="13.4586" y1="47.7588" x2="15.4782" y2="47.7588">
					<stop  offset="0" style="stop-color:#DAE3FE"/>
					<stop  offset="1" style="stop-color:#E9EFFD"/>
				</linearGradient>
				<path class="st22" d="M13.55,47.57c0.24-0.16,0.76-0.54,1.02-0.69c0.11-0.07,0.25-0.05,0.33,0.03c0.16,0.16,0.37,0.53,0.56,0.88
					c0.06,0.1,0.01,0.24-0.11,0.31l-0.97,0.55c-0.12,0.07-0.26,0.04-0.34-0.06l-0.55-0.76C13.43,47.75,13.46,47.63,13.55,47.57z"/>
				<linearGradient id="SVGID_18_" gradientUnits="userSpaceOnUse" x1="16.0396" y1="45.0709" x2="22.692" y2="45.0709">
					<stop  offset="0" style="stop-color:#DAE3FE"/>
					<stop  offset="1" style="stop-color:#E9EFFD"/>
				</linearGradient>
				<path class="st23" d="M16.11,46.51c-0.08,0.04-0.09,0.13-0.03,0.19l0.28,0.28c0.06,0.06,0.18,0.08,0.26,0.03l6-3.46
					c0.08-0.04,0.1-0.14,0.06-0.22l-0.1-0.16c-0.05-0.08-0.15-0.1-0.23-0.06L16.11,46.51z"/>
				
					<linearGradient id="SVGID_19_" gradientUnits="userSpaceOnUse" x1="-1092.9625" y1="3534.8708" x2="-1100.0831" y2="3547.0239" gradientTransform="matrix(0.8664 -0.4995 0.4995 0.8664 -804.3741 -3567.9009)">
					<stop  offset="0" style="stop-color:#FE7062"/>
					<stop  offset="1" style="stop-color:#FF928E"/>
				</linearGradient>
				<path class="st24" d="M13.69,47.7L13.69,47.7c0.06-0.1,0.19-0.14,0.3-0.08l0.48,0.29c0.05,0.03,0.11-0.01,0.1-0.07l-0.17-1.66
					c-0.01-0.08,0.1-0.12,0.14-0.04c0.23,0.41,0.56,1.23,0.29,2.24c0,0-0.43,0.07-1.08-0.4C13.66,47.93,13.64,47.8,13.69,47.7z"/>
				<path class="st16" d="M18.55,53.57C18.55,53.57,18.55,53.57,18.55,53.57l-1.22,0.69c-0.18,0.1-0.39,0.06-0.5-0.09l-0.69-0.95
					c-0.04-0.06-0.06-0.13-0.04-0.2c0.01-0.08,0.06-0.15,0.13-0.2l0,0c0.1-0.07,0.23-0.16,0.38-0.26c0.32-0.22,0.68-0.47,0.9-0.61
					c0,0,0,0,0,0c0.16-0.09,0.35-0.07,0.47,0.05c0.2,0.2,0.45,0.64,0.7,1.12C18.79,53.26,18.72,53.47,18.55,53.57z M16.3,52.91
					c-0.05,0.03-0.08,0.08-0.09,0.13c-0.01,0.04,0,0.08,0.02,0.11l0.69,0.95c0.07,0.1,0.22,0.12,0.35,0.05l1.21-0.68c0,0,0,0,0,0
					c0.12-0.07,0.16-0.2,0.11-0.31c-0.25-0.47-0.5-0.9-0.69-1.09c-0.08-0.08-0.23-0.09-0.34-0.02c-0.22,0.13-0.6,0.39-0.9,0.6
					C16.54,52.75,16.4,52.84,16.3,52.91L16.3,52.91z"/>
				<linearGradient id="SVGID_20_" gradientUnits="userSpaceOnUse" x1="16.4025" y1="53.124" x2="18.4221" y2="53.124">
					<stop  offset="0" style="stop-color:#DAE3FE"/>
					<stop  offset="1" style="stop-color:#E9EFFD"/>
				</linearGradient>
				<path class="st25" d="M16.49,52.94c0.24-0.16,0.76-0.54,1.02-0.69c0.11-0.07,0.25-0.05,0.33,0.03c0.16,0.16,0.37,0.53,0.56,0.88
					c0.06,0.1,0.01,0.24-0.11,0.31l-0.97,0.55c-0.12,0.07-0.26,0.04-0.34-0.06l-0.55-0.76C16.38,53.11,16.4,53,16.49,52.94z"/>
				<linearGradient id="SVGID_21_" gradientUnits="userSpaceOnUse" x1="18.9835" y1="50.4361" x2="25.6359" y2="50.4361">
					<stop  offset="0" style="stop-color:#DAE3FE"/>
					<stop  offset="1" style="stop-color:#E9EFFD"/>
				</linearGradient>
				<path class="st26" d="M19.05,51.88c-0.08,0.04-0.09,0.13-0.03,0.19l0.28,0.28c0.06,0.06,0.18,0.08,0.26,0.03l6-3.46
					c0.08-0.04,0.1-0.14,0.06-0.22l-0.1-0.16c-0.05-0.08-0.15-0.1-0.23-0.06L19.05,51.88z"/>
				
					<linearGradient id="SVGID_22_" gradientUnits="userSpaceOnUse" x1="-1091.7883" y1="3538.7639" x2="-1098.9089" y2="3550.917" gradientTransform="matrix(0.8664 -0.4995 0.4995 0.8664 -804.3741 -3567.9009)">
					<stop  offset="0" style="stop-color:#FE7062"/>
					<stop  offset="1" style="stop-color:#FF928E"/>
				</linearGradient>
				<path class="st27" d="M16.64,53.07L16.64,53.07c0.06-0.1,0.19-0.14,0.3-0.08l0.48,0.29c0.05,0.03,0.11-0.01,0.1-0.07l-0.17-1.66
					c-0.01-0.08,0.1-0.12,0.14-0.04c0.23,0.41,0.56,1.23,0.29,2.24c0,0-0.43,0.07-1.08-0.4C16.61,53.29,16.58,53.17,16.64,53.07z"/>
				<linearGradient id="SVGID_23_" gradientUnits="userSpaceOnUse" x1="17.4233" y1="55.6491" x2="20.0639" y2="55.6491">
					<stop  offset="0" style="stop-color:#DAE3FE"/>
					<stop  offset="1" style="stop-color:#E9EFFD"/>
				</linearGradient>
				<path class="st28" d="M19.88,56.12C19.87,56.12,19.87,56.12,19.88,56.12l-1.22,0.69c-0.18,0.1-0.39,0.06-0.5-0.09l-0.69-0.95
					c-0.04-0.06-0.06-0.13-0.04-0.2c0.01-0.08,0.06-0.15,0.13-0.2l0,0c0.1-0.07,0.23-0.16,0.38-0.26c0.3-0.21,0.68-0.47,0.9-0.61
					c0.16-0.09,0.36-0.08,0.48,0.04c0.2,0.2,0.45,0.64,0.7,1.12C20.11,55.81,20.04,56.02,19.88,56.12z M17.62,55.46
					c-0.05,0.03-0.08,0.08-0.09,0.13c-0.01,0.04,0,0.08,0.02,0.11l0.69,0.95c0.07,0.1,0.22,0.12,0.35,0.05l1.21-0.68
					c0.11-0.07,0.17-0.2,0.11-0.31c-0.25-0.47-0.5-0.9-0.69-1.09c-0.08-0.08-0.23-0.09-0.34-0.02c-0.22,0.13-0.6,0.39-0.9,0.6
					C17.86,55.3,17.72,55.4,17.62,55.46L17.62,55.46z"/>
				<path class="st29" d="M17.81,55.49c0.24-0.16,0.76-0.54,1.02-0.69c0.11-0.07,0.25-0.05,0.33,0.03c0.16,0.16,0.37,0.53,0.56,0.88
					c0.06,0.1,0.01,0.24-0.11,0.31l-0.97,0.55c-0.12,0.07-0.26,0.04-0.34-0.06l-0.55-0.76C17.7,55.66,17.72,55.55,17.81,55.49z"/>
				<linearGradient id="SVGID_24_" gradientUnits="userSpaceOnUse" x1="20.304" y1="52.9877" x2="26.9564" y2="52.9877">
					<stop  offset="0" style="stop-color:#DAE3FE"/>
					<stop  offset="1" style="stop-color:#E9EFFD"/>
				</linearGradient>
				<path class="st30" d="M20.37,54.43c-0.08,0.04-0.09,0.13-0.03,0.19l0.28,0.28c0.06,0.06,0.18,0.08,0.26,0.03l6-3.46
					c0.08-0.04,0.1-0.14,0.06-0.22l-0.1-0.17c-0.05-0.08-0.15-0.1-0.23-0.06L20.37,54.43z"/>
				
					<linearGradient id="SVGID_25_" gradientUnits="userSpaceOnUse" x1="-1090.8226" y1="3541.6409" x2="-1100.1918" y2="3554.7043" gradientTransform="matrix(0.8664 -0.4995 0.4995 0.8664 -804.3741 -3567.9009)">
					<stop  offset="0" style="stop-color:#FE7062"/>
					<stop  offset="1" style="stop-color:#FF928E"/>
				</linearGradient>
				<path class="st31" d="M17.96,55.62L17.96,55.62c0.06-0.1,0.19-0.14,0.3-0.08l0.48,0.29c0.05,0.03,0.11-0.01,0.1-0.07l-0.17-1.66
					c-0.01-0.08,0.1-0.12,0.14-0.04c0.23,0.41,0.56,1.23,0.29,2.24c0,0-0.43,0.07-1.08-0.4C17.93,55.84,17.9,55.72,17.96,55.62z"/>
				<path class="st16" d="M21.22,58.76C21.22,58.76,21.21,58.76,21.22,58.76L20,59.45c-0.18,0.1-0.39,0.06-0.5-0.09l-0.69-0.95
					c-0.04-0.06-0.06-0.13-0.04-0.2c0.01-0.08,0.06-0.15,0.13-0.2l0,0c0.1-0.07,0.23-0.16,0.38-0.26c0.32-0.22,0.68-0.47,0.9-0.61
					c0.17-0.09,0.36-0.08,0.48,0.04c0.2,0.2,0.45,0.64,0.7,1.12C21.45,58.46,21.39,58.66,21.22,58.76z M18.97,58.1
					c-0.05,0.03-0.08,0.08-0.09,0.13c-0.01,0.04,0,0.08,0.02,0.11l0.69,0.95c0.07,0.1,0.22,0.12,0.35,0.05l1.21-0.69c0,0,0,0,0,0
					c0.12-0.07,0.16-0.2,0.11-0.31c-0.25-0.47-0.5-0.9-0.69-1.09c-0.08-0.08-0.23-0.09-0.34-0.02c-0.22,0.13-0.6,0.39-0.9,0.6
					C19.2,57.95,19.06,58.04,18.97,58.1L18.97,58.1z"/>
				<linearGradient id="SVGID_26_" gradientUnits="userSpaceOnUse" x1="19.0642" y1="58.3188" x2="21.0838" y2="58.3188">
					<stop  offset="0" style="stop-color:#DAE3FE"/>
					<stop  offset="1" style="stop-color:#E9EFFD"/>
				</linearGradient>
				<path class="st32" d="M19.15,58.13c0.24-0.16,0.76-0.54,1.02-0.69c0.11-0.07,0.25-0.05,0.33,0.03c0.16,0.16,0.37,0.53,0.56,0.88
					c0.06,0.1,0.01,0.24-0.11,0.31l-0.97,0.55c-0.12,0.07-0.26,0.04-0.34-0.06l-0.55-0.76C19.04,58.31,19.06,58.19,19.15,58.13z"/>
				<linearGradient id="SVGID_27_" gradientUnits="userSpaceOnUse" x1="21.6452" y1="55.631" x2="28.2976" y2="55.631">
					<stop  offset="0" style="stop-color:#DAE3FE"/>
					<stop  offset="1" style="stop-color:#E9EFFD"/>
				</linearGradient>
				<path class="st33" d="M21.71,57.07c-0.08,0.04-0.09,0.13-0.03,0.19l0.28,0.28c0.06,0.06,0.18,0.08,0.26,0.03l6-3.46
					c0.08-0.04,0.1-0.14,0.06-0.22l-0.1-0.16c-0.05-0.08-0.15-0.1-0.23-0.06L21.71,57.07z"/>
				
					<linearGradient id="SVGID_28_" gradientUnits="userSpaceOnUse" x1="-1089.4697" y1="3540.1436" x2="-1096.5903" y2="3552.2966" gradientTransform="matrix(0.8664 -0.4995 0.4995 0.8664 -804.3741 -3567.9009)">
					<stop  offset="0" style="stop-color:#FE7062"/>
					<stop  offset="1" style="stop-color:#FF928E"/>
				</linearGradient>
				<path class="st34" d="M19.3,58.26L19.3,58.26c0.06-0.1,0.19-0.14,0.3-0.08l0.48,0.29c0.05,0.03,0.11-0.01,0.1-0.07l-0.17-1.66
					c-0.01-0.08,0.1-0.12,0.14-0.04c0.23,0.41,0.56,1.23,0.29,2.24c0,0-0.43,0.07-1.08-0.4C19.27,58.49,19.24,58.36,19.3,58.26z"/>
			</g>
			
				<linearGradient id="SVGID_29_" gradientUnits="userSpaceOnUse" x1="-499.2173" y1="413.0523" x2="-504.9209" y2="420.5553" gradientTransform="matrix(0.8862 -0.4632 0.4632 0.8862 266.3947 -560.507)">
				<stop  offset="0" style="stop-color:#09005D"/>
				<stop  offset="1" style="stop-color:#1A0F91"/>
			</linearGradient>
			<path class="st35" d="M14.94,39.06c-0.54-0.06-0.88,0.13-1.09,0.33c-0.19,0.18-0.21,0.47-0.07,0.69l0.71,1.08l1.3-0.55
				C15.79,40.6,16,39.18,14.94,39.06z M14.88,40.27c-0.17,0.09-0.38,0.03-0.47-0.14c-0.09-0.17-0.03-0.38,0.14-0.47
				c0.17-0.09,0.38-0.03,0.47,0.14C15.12,39.96,15.05,40.18,14.88,40.27z"/>
			<linearGradient id="SVGID_30_" gradientUnits="userSpaceOnUse" x1="13.8846" y1="39.9123" x2="14.5971" y2="39.9123">
				<stop  offset="0" style="stop-color:#DAE3FE"/>
				<stop  offset="1" style="stop-color:#E9EFFD"/>
			</linearGradient>
			<path class="st36" d="M14.35,40.65c-0.03,0-0.05-0.01-0.07-0.03l-0.11-0.17c-0.02-0.03-0.01-0.08,0.02-0.1
				c0.03-0.02,0.08-0.01,0.1,0.02l0.11,0.17c0.02,0.03,0.01,0.08-0.02,0.1C14.37,40.64,14.36,40.65,14.35,40.65z M14.13,40.31
				c-0.03,0-0.05-0.01-0.07-0.03l-0.09-0.13c-0.15-0.22-0.12-0.52,0.07-0.7c0.13-0.13,0.28-0.22,0.46-0.27
				c0.04-0.01,0.08,0.01,0.09,0.05c0.01,0.04-0.01,0.08-0.05,0.09c-0.15,0.05-0.29,0.12-0.4,0.24c-0.14,0.14-0.16,0.36-0.05,0.53
				l0.09,0.13c0.02,0.03,0.01,0.08-0.02,0.1C14.15,40.31,14.14,40.31,14.13,40.31z"/>
			
				<linearGradient id="SVGID_31_" gradientUnits="userSpaceOnUse" x1="-963.9313" y1="3408.7341" x2="-969.6309" y2="3416.2317" gradientTransform="matrix(0.8821 -0.4712 0.4712 0.8821 -739.8527 -3424.1499)">
				<stop  offset="0" style="stop-color:#09005D"/>
				<stop  offset="1" style="stop-color:#1A0F91"/>
			</linearGradient>
			<path class="st37" d="M13.19,42.79l-0.31-0.57c-0.11-0.2-0.03-0.44,0.17-0.54l4.02-1.97c0.18-0.09,0.39-0.03,0.5,0.14l0.33,0.53
				L13.19,42.79z"/>
			<linearGradient id="SVGID_32_" gradientUnits="userSpaceOnUse" x1="14.0581" y1="41.3183" x2="14.3086" y2="41.3183">
				<stop  offset="0" style="stop-color:#DAE3FE"/>
				<stop  offset="1" style="stop-color:#E9EFFD"/>
			</linearGradient>
			<path class="st38" d="M14.12,41.4c-0.02,0.01-0.04,0-0.05-0.02c-0.01-0.02,0-0.04,0.02-0.05l0.17-0.09
				c0.02-0.01,0.04,0,0.05,0.02c0.01,0.02,0,0.04-0.02,0.05L14.12,41.4C14.12,41.4,14.12,41.4,14.12,41.4z"/>
			<linearGradient id="SVGID_33_" gradientUnits="userSpaceOnUse" x1="13.0593" y1="41.9622" x2="13.9986" y2="41.9622">
				<stop  offset="0" style="stop-color:#DAE3FE"/>
				<stop  offset="1" style="stop-color:#E9EFFD"/>
			</linearGradient>
			<path class="st39" d="M13.3,42.54c-0.03,0-0.06-0.01-0.07-0.04l-0.12-0.23c-0.05-0.09-0.06-0.2-0.03-0.31
				c0.03-0.1,0.1-0.19,0.2-0.24l0.62-0.33c0.03-0.02,0.08-0.01,0.09,0.03c0.02,0.03,0.01,0.08-0.03,0.09l-0.62,0.33
				c-0.13,0.07-0.18,0.23-0.11,0.36l0.12,0.23c0.02,0.03,0.01,0.08-0.03,0.09C13.32,42.54,13.31,42.54,13.3,42.54z"/>
			
				<linearGradient id="SVGID_34_" gradientUnits="userSpaceOnUse" x1="-964.6495" y1="3409.1926" x2="-968.585" y2="3416.4189" gradientTransform="matrix(0.8821 -0.4712 0.4712 0.8821 -739.8527 -3424.1499)">
				<stop  offset="0" style="stop-color:#09005D"/>
				<stop  offset="1" style="stop-color:#1A0F91"/>
			</linearGradient>
			<path class="st40" d="M11.84,43.24l6.9-3.68c0.25-0.13,0.56-0.07,0.73,0.15l0.02,0.03c0.19,0.24,0.11,0.6-0.16,0.74l-7.07,3.78
				c-0.16,0.09-0.36,0.02-0.44-0.15l-0.15-0.32C11.56,43.59,11.65,43.35,11.84,43.24z"/>
		</g>
		<g>
			<g>
				<g>
					<path class="st6" d="M41.4,32.74c0,0,0.02-0.03,0.05-0.09c0.02-0.03,0.06-0.04,0.09-0.02c0.01,0.01,0.02,0.02,0.03,0.04
						c0.03-0.01,0.06-0.02,0.1-0.03c0.04-0.01,0.07,0.01,0.08,0.05c0.01,0.04-0.01,0.07-0.05,0.08c-0.1,0.03-0.18,0.05-0.21,0.06
						c-0.01,0-0.02,0.01-0.02,0.01l-0.16,0.04L41.4,32.74z M41.64,32.37c0.07-0.09,0.13-0.19,0.2-0.28c0.02-0.03,0.07-0.04,0.1-0.01
						c0.03,0.02,0.04,0.07,0.01,0.1c-0.07,0.09-0.14,0.18-0.2,0.27c-0.02,0.03-0.06,0.04-0.1,0.02c-0.01,0-0.01-0.01-0.01-0.01
						C41.63,32.43,41.63,32.4,41.64,32.37z M41.96,32.66c-0.01-0.04,0.02-0.07,0.06-0.08c0.12-0.02,0.23-0.03,0.35-0.03
						c0.04,0,0.07,0.03,0.07,0.07c0,0.04-0.03,0.07-0.07,0.07c-0.11,0-0.22,0.02-0.33,0.03c-0.02,0-0.05-0.01-0.06-0.03
						C41.96,32.68,41.96,32.67,41.96,32.66z M42.64,32.62c0-0.04,0.04-0.07,0.07-0.06c0.12,0.01,0.24,0.03,0.35,0.05
						c0.04,0.01,0.06,0.05,0.05,0.08c-0.01,0.04-0.05,0.06-0.08,0.05c-0.1-0.02-0.21-0.04-0.33-0.05c-0.02,0-0.04-0.01-0.05-0.03
						C42.64,32.65,42.64,32.63,42.64,32.62z M42.06,31.82c0.07-0.09,0.15-0.18,0.22-0.26c0.03-0.03,0.07-0.03,0.1-0.01
						c0.03,0.03,0.03,0.07,0.01,0.1c-0.07,0.08-0.15,0.17-0.22,0.26c-0.02,0.03-0.07,0.03-0.1,0.01c0,0-0.01-0.01-0.01-0.01
						C42.04,31.88,42.04,31.85,42.06,31.82z M43.3,32.76c0.02-0.03,0.06-0.05,0.09-0.03c0.08,0.04,0.15,0.08,0.22,0.12
						c0.03,0.02,0.05,0.04,0.08,0.05c0.03,0.02,0.04,0.06,0.02,0.09c-0.02,0.03-0.06,0.04-0.09,0.02c-0.03-0.02-0.06-0.03-0.09-0.05
						c-0.06-0.04-0.13-0.08-0.2-0.11c-0.01,0-0.02-0.01-0.03-0.02C43.3,32.81,43.29,32.78,43.3,32.76z M44.24,33.72
						c0.02-0.02,0.05-0.02,0.07-0.02c0.06-0.02,0.13-0.02,0.21-0.01c0.04,0,0.06,0.04,0.06,0.08c0,0.04-0.04,0.06-0.08,0.06
						c-0.1-0.01-0.16,0-0.22,0.04l-0.09-0.1L44.24,33.72z M43.9,33.08c0.01-0.04,0.05-0.05,0.09-0.04c0.11,0.04,0.21,0.07,0.31,0.08
						c0.04,0,0.06,0.04,0.06,0.08c0,0.04-0.04,0.06-0.08,0.06c-0.11-0.01-0.23-0.04-0.35-0.09c-0.01,0-0.02-0.01-0.03-0.02
						C43.9,33.13,43.89,33.11,43.9,33.08z M42.52,31.31c0.08-0.08,0.16-0.17,0.24-0.24c0.03-0.03,0.07-0.03,0.1,0
						c0.03,0.03,0.03,0.07,0,0.1c-0.08,0.08-0.16,0.16-0.24,0.24c-0.03,0.03-0.07,0.03-0.1,0c0,0,0,0-0.01-0.01
						C42.49,31.37,42.5,31.33,42.52,31.31z M44.48,33.48c0.09-0.09,0.17-0.18,0.23-0.25c0.03-0.03,0.07-0.03,0.1,0
						c0.03,0.03,0.03,0.07,0,0.1c-0.06,0.07-0.14,0.15-0.24,0.25c-0.03,0.03-0.07,0.03-0.1,0c0,0,0,0-0.01-0.01
						C44.45,33.54,44.45,33.5,44.48,33.48z M44.77,33.82c0.01-0.04,0.05-0.06,0.08-0.05c0.1,0.02,0.2,0.05,0.33,0.07
						c0.04,0.01,0.06,0.04,0.06,0.08c-0.01,0.04-0.04,0.06-0.08,0.06c-0.13-0.02-0.24-0.05-0.34-0.07c-0.02,0-0.03-0.01-0.04-0.02
						C44.77,33.86,44.77,33.84,44.77,33.82z M44.57,33.19c-0.01-0.04,0.01-0.07,0.05-0.08c0.11-0.03,0.18-0.08,0.23-0.11
						c0.02-0.01,0.04-0.02,0.05-0.03c0.01,0,0.01-0.01,0.02-0.01c0.04-0.01,0.07,0.01,0.08,0.04c0.01,0.04-0.01,0.08-0.04,0.09
						c-0.01,0-0.02,0.01-0.04,0.02c-0.05,0.03-0.14,0.09-0.27,0.12c-0.03,0.01-0.06,0-0.07-0.02C44.58,33.21,44.57,33.2,44.57,33.19
						z M43.02,30.83c0.08-0.07,0.16-0.13,0.23-0.2l0.03-0.02c0.03-0.02,0.07-0.02,0.1,0.01l0,0c0.02,0.03,0.02,0.07-0.01,0.1
						l-0.03,0.02c-0.08,0.06-0.15,0.13-0.23,0.19c-0.03,0.02-0.07,0.02-0.1-0.01c0,0,0,0,0,0C42.99,30.9,42.99,30.85,43.02,30.83z
						 M45.45,33.93c0-0.04,0.03-0.07,0.07-0.07c0.11,0,0.22,0,0.33,0c0.04,0,0.07,0.03,0.07,0.06c0,0.04-0.03,0.07-0.06,0.07
						c-0.12,0.01-0.24,0.01-0.35,0c-0.02,0-0.04-0.01-0.05-0.03C45.45,33.97,45.45,33.95,45.45,33.93z M46.13,33.91
						c-0.01-0.04,0.02-0.07,0.06-0.08c0.02,0,0.05-0.01,0.07-0.01c0.09-0.01,0.17-0.03,0.25-0.06c0.04-0.01,0.07,0.01,0.08,0.05
						c0.01,0.04-0.01,0.07-0.05,0.08c-0.09,0.02-0.18,0.05-0.27,0.06c-0.02,0-0.05,0.01-0.07,0.01c-0.02,0-0.05-0.01-0.06-0.03
						C46.14,33.93,46.13,33.92,46.13,33.91z M43.54,30.5c-0.02-0.03-0.01-0.07,0.02-0.1c0.1-0.07,0.19-0.13,0.29-0.19
						c0.03-0.02,0.08-0.01,0.09,0.02c0.02,0.03,0.01,0.07-0.02,0.09c-0.09,0.06-0.19,0.12-0.28,0.19
						C43.61,30.53,43.57,30.53,43.54,30.5C43.55,30.5,43.54,30.5,43.54,30.5z M46.79,33.74c-0.02-0.03,0-0.07,0.03-0.09
						c0.1-0.05,0.2-0.1,0.29-0.16c0.03-0.02,0.07-0.01,0.09,0.02c0.02,0.03,0.01,0.07-0.02,0.09c-0.1,0.06-0.2,0.12-0.31,0.17
						c-0.03,0.01-0.06,0-0.08-0.02C46.79,33.75,46.79,33.74,46.79,33.74z M44.12,30.13c-0.02-0.03,0-0.07,0.03-0.09
						c0.1-0.05,0.21-0.1,0.31-0.15c0.03-0.01,0.07,0,0.09,0.04c0.01,0.03,0,0.07-0.04,0.09c-0.1,0.04-0.2,0.09-0.3,0.14
						c-0.03,0.02-0.06,0.01-0.09-0.02C44.13,30.14,44.12,30.14,44.12,30.13z M47.38,33.28c0.08-0.07,0.16-0.15,0.23-0.24
						c0.02-0.03,0.07-0.03,0.1-0.01c0.03,0.02,0.03,0.07,0.01,0.1c-0.08,0.09-0.16,0.17-0.25,0.25c-0.03,0.03-0.07,0.02-0.1-0.01
						c0,0,0,0,0,0C47.35,33.35,47.35,33.31,47.38,33.28z M44.75,29.85c-0.01-0.04,0.01-0.07,0.04-0.09
						c0.11-0.04,0.22-0.07,0.34-0.09c0.04-0.01,0.07,0.01,0.08,0.05c0.01,0.04-0.01,0.07-0.05,0.08c-0.11,0.02-0.22,0.05-0.32,0.09
						c-0.03,0.01-0.06,0-0.07-0.02C44.75,29.87,44.75,29.86,44.75,29.85z M47.81,32.78c0.09-0.14,0.14-0.25,0.14-0.27l0.02-0.15
						c0.01-0.04,0.04-0.06,0.08-0.06c0.04,0.01,0.06,0.04,0.06,0.08l-0.02,0.15l0,0c-0.01,0.1-0.16,0.33-0.16,0.33
						c-0.02,0.03-0.06,0.04-0.09,0.02c-0.01,0-0.01-0.01-0.02-0.01C47.79,32.84,47.79,32.81,47.81,32.78z M45.41,29.69
						c0-0.04,0.02-0.07,0.06-0.08c0.12-0.01,0.23-0.02,0.35-0.02c0.04,0,0.07,0.03,0.07,0.07c0,0.04-0.03,0.07-0.07,0.07
						c-0.11,0-0.22,0.01-0.33,0.02c-0.02,0-0.05-0.01-0.06-0.03C45.42,29.72,45.41,29.7,45.41,29.69z M46.09,29.67
						c0-0.04,0.04-0.07,0.07-0.06c0.11,0.01,0.23,0.03,0.34,0.05c0.04,0.01,0.06,0.04,0.05,0.08c-0.01,0.04-0.04,0.06-0.08,0.05
						c-0.11-0.02-0.22-0.04-0.33-0.05c-0.02,0-0.04-0.01-0.05-0.03C46.09,29.71,46.09,29.69,46.09,29.67z M48.02,32.02l0.05-0.34
						c0.01-0.04,0.04-0.06,0.08-0.06c0.04,0.01,0.06,0.04,0.06,0.08l-0.05,0.34c-0.01,0.04-0.04,0.06-0.08,0.06
						c-0.02,0-0.03-0.01-0.04-0.02C48.02,32.06,48.02,32.04,48.02,32.02z M46.76,29.8c0.01-0.04,0.05-0.06,0.09-0.04
						c0.11,0.03,0.22,0.08,0.33,0.12c0.03,0.01,0.05,0.06,0.04,0.09C47.19,30,47.15,30.01,47.12,30c-0.1-0.04-0.21-0.08-0.31-0.12
						c-0.01,0-0.02-0.01-0.03-0.02C46.76,29.84,46.75,29.82,46.76,29.8z M48.12,31.34L48.17,31c0.01-0.04,0.04-0.06,0.08-0.06
						c0.04,0.01,0.06,0.04,0.06,0.08l-0.05,0.34c-0.01,0.04-0.04,0.06-0.08,0.06c-0.02,0-0.03-0.01-0.04-0.02
						C48.12,31.38,48.12,31.36,48.12,31.34z M47.39,30.05c0.02-0.03,0.06-0.05,0.09-0.03c0.1,0.05,0.2,0.11,0.3,0.18
						c0.03,0.02,0.04,0.06,0.02,0.09c-0.02,0.03-0.06,0.04-0.09,0.02c-0.1-0.06-0.19-0.12-0.29-0.17c-0.01,0-0.02-0.01-0.02-0.02
						C47.38,30.11,47.38,30.08,47.39,30.05z M47.97,30.42c0.02-0.03,0.07-0.04,0.1-0.01c0.09,0.07,0.18,0.14,0.26,0.21l0.03,0.02
						l-0.01,0.05c-0.01,0.04-0.04,0.06-0.08,0.06c-0.02,0-0.04-0.02-0.05-0.04c-0.08-0.07-0.16-0.13-0.24-0.19
						c0,0-0.01-0.01-0.01-0.01C47.95,30.48,47.95,30.44,47.97,30.42z"/>
				</g>
				
					<linearGradient id="SVGID_35_" gradientUnits="userSpaceOnUse" x1="-4724.1938" y1="1894.03" x2="-4726.9258" y2="1897.6996" gradientTransform="matrix(0.7384 -0.6743 -0.6743 -0.7384 4814.6255 -1754.797)">
					<stop  offset="0" style="stop-color:#FE7062"/>
					<stop  offset="1" style="stop-color:#FF928E"/>
				</linearGradient>
				<path class="st41" d="M48.04,31.75c0,0-0.7,1.34-1.74,0.94c-1.04-0.41-1.99-1.08-2.48-0.87c0,0,1.84-2.32,4.24-0.6L48.04,31.75z
					"/>
				<path class="st6" d="M50.79,33.38c0,0-0.18,1.48-0.65,1.66c-0.45,0.17-3.8-0.13-4.13-0.16c-0.01,0-0.03-0.01-0.03-0.03l0,0
					c0-0.12,0.06-0.24,0.16-0.31c0.48-0.34,1.92-1.35,2.45-1.51C49.24,32.84,50.79,33.38,50.79,33.38z"/>
				<path class="st4" d="M47.22,34.79c0.01,0.01,0.01,0.01,0.02,0.01c0.02,0,1.86,0.13,2.65,0.16c0.14,0,0.27-0.07,0.33-0.2
					c0.1-0.2,0.27-0.6,0.37-1.01c0-0.02-0.01-0.04-0.03-0.04c-0.02,0-0.04,0.01-0.04,0.03c-0.1,0.41-0.27,0.8-0.37,1
					c-0.05,0.1-0.16,0.17-0.27,0.16c-0.79-0.03-2.63-0.16-2.65-0.16c-0.02,0-0.04,0.01-0.04,0.03
					C47.21,34.77,47.21,34.78,47.22,34.79z"/>
				<path class="st6" d="M50.83,29.92c0,0-0.14-1.48-0.61-1.68c-0.44-0.19-3.8,0.03-4.13,0.05c-0.01,0-0.03,0.01-0.03,0.03l0,0
					c0,0.12,0.05,0.24,0.15,0.31c0.47,0.35,1.89,1.4,2.41,1.57C49.28,30.42,50.83,29.92,50.83,29.92z"/>
				<path class="st4" d="M47.3,28.46c0.01,0.01,0.02,0.01,0.03,0.01c0.02,0,1.86-0.09,2.65-0.09c0.11,0,0.22,0.07,0.27,0.17
					c0.09,0.2,0.26,0.6,0.34,1.01c0,0.02,0.02,0.03,0.04,0.03c0.02,0,0.03-0.02,0.03-0.04c-0.08-0.4-0.23-0.78-0.35-1.02
					c-0.06-0.13-0.19-0.21-0.33-0.21c-0.79,0.01-2.64,0.09-2.66,0.09c-0.02,0-0.03,0.02-0.03,0.04
					C47.29,28.45,47.29,28.46,47.3,28.46z"/>
				
					<linearGradient id="SVGID_36_" gradientUnits="userSpaceOnUse" x1="-393.8354" y1="4265.083" x2="-391.9207" y2="4284.3672" gradientTransform="matrix(-0.6714 -0.7411 -0.7411 0.6714 2950.2344 -3125.0415)">
					<stop  offset="0" style="stop-color:#4042E2"/>
					<stop  offset="1" style="stop-color:#4F52FF"/>
				</linearGradient>
				<path class="st42" d="M55.79,33.42c-0.69,0.22-1.49,0.36-2.37,0.35c-2.75-0.03-4.77-0.52-5.34-0.68
					c-0.1-0.03-0.18-0.11-0.21-0.22c-0.19-0.82-0.19-1.64,0.01-2.45c0.04-0.15,0.16-0.27,0.31-0.31c0.67-0.16,2.64-0.56,5.27-0.52
					c0.88,0.01,1.67,0.18,2.35,0.41C56.18,31.37,55.96,32.69,55.79,33.42z"/>
				
					<linearGradient id="SVGID_37_" gradientUnits="userSpaceOnUse" x1="-3439.5747" y1="1943.4429" x2="-3443.051" y2="1948.4711" gradientTransform="matrix(0.013 -0.9999 -0.9999 -0.013 2045.9294 -3383.5076)">
					<stop  offset="0" style="stop-color:#FE7062"/>
					<stop  offset="1" style="stop-color:#FF928E"/>
				</linearGradient>
				<path class="st43" d="M55.81,30c1.5,0.51,2.49,1.35,2.81,1.64c0.06,0.06,0.06,0.16,0,0.21c-0.32,0.29-1.32,1.1-2.83,1.57
					C55.96,32.69,56.18,31.37,55.81,30z"/>
				<g>
					<path class="st1" d="M53.64,30.3c-0.71-0.01-1.3,0.6-1.31,1.37c-0.01,0.76,0.56,1.39,1.27,1.4c0.71,0.01,1.3-0.6,1.31-1.37
						S54.35,30.31,53.64,30.3z"/>
					
						<linearGradient id="SVGID_38_" gradientUnits="userSpaceOnUse" x1="-3441.9263" y1="1947.7362" x2="-3439.719" y2="1947.7362" gradientTransform="matrix(0.013 -0.9999 -0.9999 -0.013 2045.9294 -3383.5076)">
						<stop  offset="0" style="stop-color:#09005D"/>
						<stop  offset="1" style="stop-color:#1A0F91"/>
					</linearGradient>
					<path class="st44" d="M53.67,30.55c-0.57-0.01-1.03,0.48-1.04,1.09c-0.01,0.61,0.45,1.11,1.01,1.12
						c0.57,0.01,1.03-0.48,1.04-1.09C54.69,31.05,54.24,30.55,53.67,30.55z"/>
					<path class="st4" d="M53.84,32.43c0.01,0.01,0.02,0.02,0.04,0.01c0.35-0.1,0.6-0.44,0.6-0.82c0-0.1-0.01-0.19-0.04-0.28
						c-0.01-0.02-0.02-0.03-0.04-0.02c-0.02,0.01-0.03,0.02-0.02,0.04c0.03,0.08,0.04,0.17,0.04,0.26c0,0.35-0.23,0.66-0.55,0.76
						c-0.02,0.01-0.03,0.02-0.02,0.04C53.83,32.42,53.84,32.42,53.84,32.43z"/>
				</g>
				<g>
					<path class="st1" d="M51.04,30.74c-0.47-0.01-0.86,0.4-0.86,0.9c-0.01,0.51,0.37,0.92,0.84,0.93c0.47,0.01,0.86-0.4,0.86-0.9
						C51.89,31.16,51.51,30.75,51.04,30.74z"/>
					
						<linearGradient id="SVGID_39_" gradientUnits="userSpaceOnUse" x1="-3441.5649" y1="1950.342" x2="-3440.1069" y2="1950.342" gradientTransform="matrix(0.013 -0.9999 -0.9999 -0.013 2045.9294 -3383.5076)">
						<stop  offset="0" style="stop-color:#09005D"/>
						<stop  offset="1" style="stop-color:#1A0F91"/>
					</linearGradient>
					<path class="st45" d="M51.06,30.9c-0.38,0-0.68,0.32-0.69,0.72c-0.01,0.4,0.29,0.73,0.67,0.74c0.38,0,0.68-0.32,0.69-0.72
						C51.74,31.24,51.44,30.91,51.06,30.9z"/>
					<path class="st4" d="M51.16,32.15c0.01,0.01,0.02,0.02,0.04,0.01c0.24-0.07,0.4-0.3,0.41-0.55c0-0.06-0.01-0.13-0.03-0.19
						c-0.01-0.02-0.02-0.03-0.04-0.02c-0.02,0.01-0.03,0.02-0.02,0.04c0.02,0.05,0.03,0.11,0.02,0.17c0,0.23-0.15,0.43-0.36,0.49
						c-0.02,0.01-0.03,0.02-0.02,0.04C51.16,32.14,51.16,32.15,51.16,32.15z"/>
				</g>
			</g>
			<g>
				<path class="st6" d="M40.48,32.69l-0.45,0.11c-0.04,0.01-0.08-0.02-0.09-0.06c-0.01-0.04,0.02-0.08,0.06-0.09l0.01,0l0.44-0.11
					l0.01,0c0.04-0.01,0.09,0.02,0.1,0.06C40.54,32.64,40.52,32.68,40.48,32.69L40.48,32.69z"/>
				<path class="st6" d="M39.57,32.88l-0.46,0.05c-0.04,0-0.08-0.03-0.08-0.07c0-0.04,0.03-0.08,0.07-0.08l0,0l0.45-0.05l0,0
					c0.04,0,0.08,0.03,0.09,0.07C39.65,32.84,39.62,32.88,39.57,32.88L39.57,32.88z"/>
				<path class="st6" d="M38.65,32.95l-0.46,0c-0.04,0-0.07-0.03-0.07-0.08c0-0.04,0.03-0.07,0.08-0.07l0,0l0.45,0l0,0
					c0.04,0,0.08,0.03,0.08,0.08C38.73,32.92,38.7,32.95,38.65,32.95L38.65,32.95z"/>
				<path class="st6" d="M37.74,32.92l-0.46-0.05c-0.04,0-0.07-0.04-0.07-0.08c0-0.04,0.04-0.07,0.08-0.07l0,0l0.45,0.05l0,0
					c0.04,0,0.07,0.04,0.07,0.08C37.81,32.9,37.78,32.93,37.74,32.92L37.74,32.92z"/>
				<path class="st6" d="M36.82,32.81l-0.45-0.09c-0.04-0.01-0.06-0.04-0.06-0.08c0.01-0.04,0.04-0.06,0.08-0.06l0,0l0.45,0.08l0,0
					c0.04,0.01,0.07,0.05,0.06,0.08C36.9,32.79,36.86,32.81,36.82,32.81L36.82,32.81z"/>
				<path class="st6" d="M35.93,32.62l-0.44-0.12c-0.04-0.01-0.06-0.05-0.05-0.09c0.01-0.04,0.05-0.06,0.09-0.05l0,0l0.44,0.11l0,0
					c0.04,0.01,0.06,0.05,0.05,0.09C36,32.61,35.96,32.63,35.93,32.62L35.93,32.62z"/>
				<path class="st6" d="M35.04,32.37l-0.44-0.14c-0.04-0.01-0.06-0.05-0.04-0.09c0.01-0.04,0.05-0.06,0.09-0.04l0,0l0.43,0.14l0,0
					c0.04,0.01,0.06,0.05,0.04,0.09C35.12,32.36,35.08,32.38,35.04,32.37L35.04,32.37z"/>
				<path class="st6" d="M34.18,32.07l-0.43-0.16c-0.03-0.01-0.05-0.05-0.04-0.09c0.01-0.03,0.05-0.05,0.09-0.04l0,0l0.42,0.16l0,0
					c0.03,0.01,0.05,0.05,0.04,0.09C34.25,32.07,34.21,32.09,34.18,32.07L34.18,32.07z"/>
				<path class="st6" d="M33.32,31.74l-0.42-0.18c-0.03-0.01-0.05-0.05-0.03-0.09c0.01-0.03,0.05-0.05,0.09-0.03l0,0l0.42,0.18l0,0
					c0.03,0.01,0.05,0.05,0.03,0.09C33.4,31.74,33.36,31.75,33.32,31.74L33.32,31.74z"/>
				<path class="st6" d="M32.49,31.36l-0.41-0.2c-0.03-0.02-0.04-0.05-0.03-0.08c0.02-0.03,0.05-0.04,0.08-0.03l0,0l0.41,0.2l0,0
					c0.03,0.02,0.05,0.05,0.03,0.09C32.56,31.36,32.52,31.38,32.49,31.36L32.49,31.36z"/>
				<path class="st6" d="M31.67,30.96l-0.4-0.21c-0.03-0.02-0.04-0.05-0.03-0.08c0.02-0.03,0.05-0.04,0.08-0.03l0,0l0.4,0.21l0,0
					c0.03,0.02,0.04,0.05,0.03,0.08C31.74,30.96,31.7,30.97,31.67,30.96L31.67,30.96z"/>
				<path class="st6" d="M30.86,30.52l-0.4-0.23c-0.03-0.02-0.04-0.05-0.02-0.08c0.02-0.03,0.05-0.04,0.08-0.02l0,0l0.4,0.22l0,0
					c0.03,0.02,0.04,0.05,0.02,0.08C30.93,30.53,30.89,30.54,30.86,30.52L30.86,30.52z"/>
				<path class="st6" d="M30.07,30.07l-0.39-0.24c-0.03-0.02-0.04-0.05-0.02-0.08c0.02-0.03,0.05-0.04,0.08-0.02l0,0l0.39,0.24l0,0
					c0.03,0.02,0.04,0.05,0.02,0.08C30.14,30.07,30.1,30.08,30.07,30.07L30.07,30.07z"/>
				<path class="st6" d="M29.29,29.59l-0.39-0.25c-0.03-0.02-0.04-0.05-0.02-0.08c0.02-0.03,0.05-0.04,0.08-0.02l0,0l0.38,0.25l0,0
					c0.03,0.02,0.04,0.05,0.02,0.08C29.35,29.6,29.32,29.61,29.29,29.59L29.29,29.59z"/>
				<path class="st6" d="M28.52,29.09l-0.38-0.26c-0.03-0.02-0.03-0.05-0.02-0.08c0.02-0.03,0.05-0.03,0.08-0.02l0,0l0.38,0.25l0,0
					c0.03,0.02,0.03,0.05,0.02,0.08C28.59,29.1,28.55,29.11,28.52,29.09L28.52,29.09z"/>
				<path class="st6" d="M27.77,28.57l-0.37-0.26c-0.03-0.02-0.03-0.05-0.01-0.08c0.02-0.03,0.05-0.03,0.08-0.01l0,0l0.37,0.26l0,0
					c0.03,0.02,0.03,0.05,0.01,0.08C27.83,28.59,27.79,28.59,27.77,28.57L27.77,28.57z"/>
				<path class="st6" d="M27.02,28.05l-0.39-0.23l0,0c-0.03-0.02-0.04-0.05-0.02-0.08c0.02-0.03,0.05-0.04,0.08-0.02l0.4,0.23
					c0.03,0.02,0.04,0.05,0.02,0.08C27.09,28.06,27.05,28.07,27.02,28.05L27.02,28.05L27.02,28.05z"/>
				<path class="st6" d="M26.23,27.62l-0.42-0.18l0,0c-0.03-0.01-0.04-0.05-0.03-0.07c0.01-0.03,0.05-0.04,0.07-0.03l0.42,0.18
					c0.03,0.01,0.04,0.05,0.03,0.07C26.29,27.62,26.26,27.63,26.23,27.62L26.23,27.62L26.23,27.62z"/>
				<path class="st6" d="M25.39,27.28l-0.43-0.13l0,0c-0.03-0.01-0.05-0.04-0.04-0.07c0.01-0.03,0.04-0.05,0.07-0.04l0.44,0.13
					c0.03,0.01,0.05,0.04,0.04,0.07C25.45,27.28,25.42,27.29,25.39,27.28L25.39,27.28L25.39,27.28z"/>
				<path class="st6" d="M24.51,27.06l-0.45-0.07l0,0c-0.03,0-0.05-0.03-0.05-0.06c0-0.03,0.03-0.05,0.06-0.05l0.45,0.07
					c0.03,0,0.05,0.03,0.05,0.06C24.57,27.05,24.54,27.07,24.51,27.06L24.51,27.06L24.51,27.06z"/>
				<path class="st6" d="M23.61,26.95l-0.45-0.01l0,0c-0.03,0-0.05-0.03-0.05-0.06c0-0.03,0.03-0.05,0.06-0.05l0.46,0.01
					c0.03,0,0.05,0.03,0.05,0.06C23.67,26.93,23.65,26.95,23.61,26.95L23.61,26.95L23.61,26.95z"/>
				<path class="st6" d="M22.71,26.95L22.26,27l0,0c-0.03,0-0.06-0.02-0.06-0.05c0-0.03,0.02-0.06,0.05-0.06l0.46-0.05
					c0.03,0,0.06,0.02,0.06,0.05C22.76,26.92,22.74,26.95,22.71,26.95L22.71,26.95L22.71,26.95z"/>
				<path class="st6" d="M21.81,27.07l-0.44,0.1l0,0c-0.03,0.01-0.06-0.01-0.07-0.04c-0.01-0.03,0.01-0.06,0.04-0.07l0.45-0.1
					c0.03-0.01,0.06,0.01,0.07,0.04C21.86,27.04,21.84,27.07,21.81,27.07L21.81,27.07L21.81,27.07z"/>
				<path class="st6" d="M20.93,27.3l-0.42,0.16l0,0c-0.03,0.01-0.06,0-0.07-0.03c-0.01-0.03,0-0.06,0.03-0.07l0.43-0.16
					c0.03-0.01,0.06,0,0.07,0.03C20.98,27.26,20.96,27.29,20.93,27.3L20.93,27.3L20.93,27.3z"/>
				<path class="st6" d="M20.1,27.65l-0.4,0.21l0,0c-0.03,0.01-0.06,0-0.07-0.02c-0.01-0.03,0-0.06,0.02-0.07l0.41-0.22
					c0.03-0.01,0.06,0,0.07,0.02C20.13,27.6,20.12,27.63,20.1,27.65L20.1,27.65L20.1,27.65z"/>
				<path class="st6" d="M19.31,28.1l-0.37,0.27l0,0c-0.02,0.02-0.06,0.01-0.07-0.01c-0.02-0.02-0.01-0.06,0.01-0.07l0.37-0.27
					c0.02-0.02,0.06-0.01,0.07,0.01C19.35,28.05,19.34,28.08,19.31,28.1L19.31,28.1L19.31,28.1z"/>
				<path class="st6" d="M18.6,28.66l-0.33,0.31l0,0c-0.02,0.02-0.05,0.02-0.07,0c-0.02-0.02-0.02-0.05,0-0.07l0.34-0.31
					c0.02-0.02,0.05-0.02,0.07,0C18.62,28.6,18.62,28.63,18.6,28.66L18.6,28.66L18.6,28.66z"/>
				<path class="st6" d="M17.95,29.29l-0.29,0.34l0,0c-0.02,0.02-0.05,0.02-0.07,0.01c-0.02-0.02-0.02-0.05-0.01-0.07l0.3-0.35
					c0.02-0.02,0.05-0.02,0.07-0.01C17.97,29.23,17.97,29.27,17.95,29.29L17.95,29.29L17.95,29.29z"/>
				<path class="st6" d="M17.38,30l-0.25,0.38l0,0c-0.02,0.02-0.05,0.03-0.07,0.01c-0.02-0.02-0.03-0.05-0.01-0.07l0.26-0.38
					c0.02-0.02,0.05-0.03,0.07-0.01C17.4,29.94,17.4,29.97,17.38,30L17.38,30L17.38,30z"/>
				<path class="st6" d="M16.9,30.76l-0.2,0.4l0,0c-0.01,0.03-0.04,0.04-0.07,0.02c-0.03-0.01-0.04-0.04-0.02-0.07l0.21-0.41
					c0.01-0.03,0.04-0.04,0.07-0.02C16.91,30.7,16.92,30.74,16.9,30.76L16.9,30.76L16.9,30.76z"/>
				<path class="st6" d="M16.52,31.58l-0.15,0.43l0,0c-0.01,0.03-0.04,0.04-0.06,0.03c-0.03-0.01-0.04-0.04-0.03-0.06l0.15-0.43
					c0.01-0.03,0.04-0.04,0.06-0.03C16.52,31.53,16.53,31.55,16.52,31.58L16.52,31.58L16.52,31.58z"/>
				<path class="st6" d="M16.25,32.45l-0.08,0.44l0,0c-0.01,0.03-0.03,0.05-0.06,0.04c-0.03-0.01-0.05-0.03-0.04-0.06l0.08-0.45
					c0.01-0.03,0.03-0.05,0.06-0.04C16.24,32.39,16.26,32.42,16.25,32.45L16.25,32.45L16.25,32.45z"/>
				<path class="st6" d="M16.13,33.34l0,0.45l0,0c0,0.03-0.02,0.05-0.05,0.05c-0.03,0-0.05-0.02-0.05-0.05l0-0.46
					c0-0.03,0.02-0.05,0.05-0.05C16.11,33.29,16.13,33.31,16.13,33.34L16.13,33.34L16.13,33.34z"/>
				<path class="st6" d="M16.17,34.25l0.08,0.44l0,0c0.01,0.03-0.01,0.05-0.04,0.06c-0.03,0.01-0.05-0.01-0.06-0.04l-0.09-0.45
					c-0.01-0.03,0.01-0.05,0.04-0.06C16.13,34.2,16.16,34.21,16.17,34.25L16.17,34.25L16.17,34.25z"/>
				<path class="st6" d="M16.38,35.12l0.17,0.42l0,0c0.01,0.02,0,0.05-0.03,0.06c-0.02,0.01-0.05,0-0.06-0.03l-0.18-0.43
					c-0.01-0.03,0-0.05,0.03-0.06C16.34,35.08,16.37,35.09,16.38,35.12L16.38,35.12L16.38,35.12z"/>
				<path class="st6" d="M16.77,35.93c0.08,0.12,0.18,0.24,0.28,0.34c0.02,0.02,0.02,0.05,0,0.07c-0.02,0.02-0.05,0.02-0.07,0
					c-0.11-0.11-0.21-0.23-0.3-0.36c-0.02-0.02-0.01-0.05,0.01-0.07C16.73,35.9,16.76,35.91,16.77,35.93L16.77,35.93z"/>
				<path class="st6" d="M17.4,36.55c0.13,0.08,0.26,0.14,0.4,0.19c0.03,0.01,0.04,0.04,0.03,0.06c-0.01,0.03-0.04,0.04-0.06,0.03
					c-0.15-0.05-0.29-0.12-0.42-0.2c-0.02-0.01-0.03-0.04-0.02-0.07C17.35,36.54,17.38,36.54,17.4,36.55L17.4,36.55z"/>
				<path class="st6" d="M18.24,36.84c0.15,0.02,0.3,0.01,0.45,0c0.03,0,0.05,0.02,0.05,0.04s-0.02,0.05-0.04,0.05
					c-0.15,0.02-0.31,0.02-0.47,0c-0.03,0-0.05-0.03-0.04-0.05C18.19,36.85,18.21,36.83,18.24,36.84L18.24,36.84z"/>
				<path class="st6" d="M19.12,36.74c0.14-0.04,0.28-0.1,0.41-0.17c0.02-0.01,0.05,0,0.06,0.02c0.01,0.02,0,0.05-0.02,0.06
					c-0.14,0.07-0.28,0.13-0.43,0.18c-0.02,0.01-0.05-0.01-0.06-0.03C19.08,36.78,19.1,36.75,19.12,36.74L19.12,36.74z"/>
				<path class="st6" d="M19.91,36.33c0.12-0.09,0.23-0.19,0.33-0.3c0.02-0.02,0.05-0.02,0.07,0c0.02,0.02,0.02,0.05,0,0.07
					c-0.11,0.11-0.22,0.22-0.34,0.31c-0.02,0.02-0.05,0.01-0.07-0.01C19.89,36.37,19.89,36.34,19.91,36.33L19.91,36.33z"/>
				<path class="st6" d="M20.52,35.67l0.11-0.19c0.04-0.06,0.07-0.13,0.1-0.2l0,0c0.01-0.02,0.04-0.03,0.06-0.02
					c0.02,0.01,0.03,0.04,0.02,0.06c-0.03,0.07-0.07,0.14-0.11,0.21l-0.12,0.2c-0.01,0.02-0.04,0.03-0.06,0.02
					C20.51,35.73,20.51,35.7,20.52,35.67L20.52,35.67L20.52,35.67z"/>
				<path class="st6" d="M20.89,34.86c0.04-0.14,0.07-0.29,0.09-0.44c0-0.03,0.03-0.04,0.05-0.04c0.03,0,0.04,0.03,0.04,0.05
					c-0.02,0.15-0.05,0.31-0.09,0.46c-0.01,0.02-0.03,0.04-0.06,0.03C20.9,34.91,20.89,34.89,20.89,34.86L20.89,34.86z"/>
				<path class="st6" d="M20.98,33.97c-0.01-0.15-0.04-0.3-0.08-0.44c-0.01-0.02,0.01-0.05,0.03-0.06c0.02-0.01,0.05,0.01,0.06,0.03
					c0.04,0.15,0.07,0.3,0.09,0.46c0,0.03-0.02,0.05-0.04,0.05C21.01,34.02,20.99,34,20.98,33.97L20.98,33.97z"/>
				<path class="st6" d="M20.73,33.12c-0.07-0.13-0.15-0.26-0.24-0.38c-0.01-0.02-0.01-0.05,0.01-0.06
					c0.02-0.01,0.05-0.01,0.06,0.01c0.09,0.12,0.18,0.26,0.25,0.39c0.01,0.02,0,0.05-0.02,0.06C20.77,33.15,20.75,33.14,20.73,33.12
					L20.73,33.12z"/>
				<path class="st6" d="M20.2,32.4c-0.11-0.1-0.22-0.2-0.34-0.29c-0.02-0.01-0.02-0.04-0.01-0.06c0.01-0.02,0.04-0.02,0.06-0.01
					c0.12,0.09,0.24,0.19,0.35,0.3c0.02,0.02,0.02,0.05,0,0.06C20.25,32.42,20.22,32.42,20.2,32.4L20.2,32.4z"/>
				<path class="st6" d="M19.48,31.87c-0.13-0.07-0.27-0.14-0.41-0.2c-0.02-0.01-0.03-0.03-0.02-0.06c0.01-0.02,0.03-0.03,0.06-0.02
					c0.14,0.06,0.28,0.12,0.42,0.2c0.02,0.01,0.03,0.04,0.02,0.06C19.53,31.87,19.5,31.88,19.48,31.87L19.48,31.87z"/>
				<path class="st6" d="M18.65,31.52c-0.14-0.04-0.29-0.07-0.44-0.1l0,0c-0.02-0.01-0.04-0.03-0.03-0.05
					c0.01-0.02,0.03-0.04,0.05-0.03l0,0c0.15,0.04,0.3,0.07,0.45,0.11c0.02,0.01,0.04,0.03,0.03,0.05
					C18.7,31.52,18.67,31.53,18.65,31.52L18.65,31.52z"/>
				<path class="st6" d="M17.76,31.35l-0.45-0.04l0,0c-0.03,0-0.04-0.03-0.04-0.05c0-0.03,0.03-0.04,0.05-0.04l0,0l0.46,0.05
					c0.03,0,0.04,0.03,0.04,0.05C17.81,31.33,17.79,31.35,17.76,31.35L17.76,31.35z"/>
				<path class="st6" d="M16.86,31.29L16.4,31.3l0,0c-0.03,0-0.05-0.02-0.05-0.05c0-0.03,0.02-0.05,0.05-0.05l0,0l0.46-0.01
					c0.03,0,0.05,0.02,0.05,0.05C16.91,31.26,16.88,31.29,16.86,31.29L16.86,31.29z"/>
				<path class="st6" d="M15.95,31.33L15.5,31.4l0,0c-0.03,0-0.05-0.02-0.06-0.04c0-0.03,0.02-0.05,0.04-0.06l0,0l0.46-0.06
					c0.03,0,0.05,0.02,0.06,0.04C16,31.3,15.98,31.33,15.95,31.33L15.95,31.33z"/>
				<path class="st6" d="M15.05,31.48l-0.44,0.11l0,0c-0.03,0.01-0.06-0.01-0.07-0.04c-0.01-0.03,0.01-0.06,0.04-0.07l0,0l0.45-0.11
					c0.03-0.01,0.06,0.01,0.06,0.04C15.1,31.44,15.09,31.47,15.05,31.48L15.05,31.48z"/>
				<path class="st6" d="M14.18,31.72l-0.43,0.15l0,0c-0.03,0.01-0.06,0-0.07-0.03c-0.01-0.03,0-0.06,0.03-0.07l0,0l0.43-0.15
					c0.03-0.01,0.06,0,0.07,0.03C14.23,31.68,14.21,31.71,14.18,31.72L14.18,31.72z"/>
				<path class="st6" d="M13.34,32.05l-0.41,0.2l0,0c-0.03,0.01-0.07,0-0.08-0.03c-0.01-0.03,0-0.07,0.03-0.08l0,0l0.41-0.2
					c0.03-0.01,0.06,0,0.08,0.03C13.38,32,13.37,32.04,13.34,32.05L13.34,32.05z"/>
				<path class="st6" d="M12.54,32.48l-0.38,0.25l0,0c-0.03,0.02-0.07,0.01-0.09-0.02c-0.02-0.03-0.01-0.07,0.02-0.09l0,0l0.38-0.25
					c0.03-0.02,0.07-0.01,0.08,0.02C12.58,32.42,12.57,32.46,12.54,32.48L12.54,32.48z"/>
				<path class="st6" d="M11.8,33l-0.35,0.29l0,0c-0.03,0.02-0.07,0.02-0.09-0.01c-0.02-0.03-0.02-0.07,0.01-0.09l0,0l0.36-0.29
					c0.03-0.02,0.07-0.02,0.09,0.01C11.83,32.94,11.83,32.98,11.8,33L11.8,33z"/>
				<path class="st6" d="M11.11,33.59l-0.32,0.32l0,0c-0.03,0.03-0.07,0.03-0.1,0c-0.03-0.03-0.03-0.07,0-0.1l0,0l0.33-0.32
					c0.03-0.03,0.07-0.02,0.09,0C11.14,33.53,11.14,33.57,11.11,33.59L11.11,33.59z"/>
				<path class="st6" d="M10.48,34.24l-0.3,0.34l0,0c-0.03,0.03-0.07,0.03-0.1,0.01c-0.03-0.03-0.03-0.07-0.01-0.1l0,0l0.31-0.34
					c0.03-0.03,0.07-0.03,0.1-0.01C10.5,34.17,10.5,34.21,10.48,34.24L10.48,34.24z"/>
				<path class="st6" d="M9.89,34.93l-0.28,0.36l0,0c-0.02,0.03-0.07,0.04-0.1,0.01c-0.03-0.02-0.04-0.07-0.01-0.1l0,0l0.28-0.36
					c0.02-0.03,0.07-0.04,0.1-0.01C9.91,34.85,9.91,34.9,9.89,34.93L9.89,34.93z"/>
				<path class="st6" d="M9.34,35.66l-0.26,0.37l0,0c-0.02,0.03-0.07,0.04-0.1,0.02c-0.03-0.02-0.04-0.07-0.02-0.1l0,0l0.26-0.38
					c0.02-0.03,0.07-0.04,0.1-0.02C9.35,35.58,9.36,35.62,9.34,35.66L9.34,35.66z"/>
				<path class="st6" d="M8.83,36.41l-0.24,0.39l0,0c-0.02,0.04-0.07,0.05-0.11,0.02c-0.04-0.02-0.05-0.07-0.02-0.11l0,0l0.24-0.39
					c0.02-0.04,0.07-0.05,0.1-0.02C8.84,36.32,8.85,36.37,8.83,36.41L8.83,36.41z"/>
				<path class="st6" d="M8.36,37.19l-0.22,0.4l0,0c-0.02,0.04-0.07,0.05-0.11,0.03C7.99,37.6,7.98,37.55,8,37.51l0,0l0.22-0.4
					c0.02-0.04,0.07-0.05,0.11-0.03C8.37,37.1,8.38,37.15,8.36,37.19L8.36,37.19z"/>
				<path class="st6" d="M7.93,37.99l-0.2,0.41l0,0c-0.02,0.04-0.07,0.06-0.11,0.04c-0.04-0.02-0.06-0.07-0.04-0.11l0,0l0.2-0.41
					c0.02-0.04,0.07-0.06,0.11-0.04C7.93,37.9,7.95,37.95,7.93,37.99L7.93,37.99z"/>
				<path class="st6" d="M7.54,38.81l-0.18,0.42l0,0c-0.02,0.04-0.07,0.06-0.11,0.04c-0.04-0.02-0.06-0.07-0.04-0.11l0,0l0.18-0.42
					c0.02-0.04,0.07-0.06,0.11-0.04C7.54,38.72,7.56,38.76,7.54,38.81L7.54,38.81z"/>
				<path class="st6" d="M7.2,39.65l-0.15,0.43l0,0c-0.02,0.04-0.07,0.07-0.11,0.05c-0.04-0.02-0.07-0.07-0.05-0.11l0,0l0.16-0.43
					c0.02-0.04,0.07-0.07,0.11-0.05C7.19,39.55,7.21,39.6,7.2,39.65L7.2,39.65z"/>
				<path class="st6" d="M6.9,40.51l-0.13,0.44l0,0c-0.01,0.05-0.06,0.07-0.11,0.06c-0.05-0.01-0.07-0.06-0.06-0.11l0,0l0.13-0.44
					c0.01-0.05,0.06-0.07,0.11-0.06C6.89,40.41,6.91,40.46,6.9,40.51L6.9,40.51z"/>
				<path class="st6" d="M6.66,41.38l-0.09,0.44l0,0c-0.01,0.05-0.06,0.08-0.11,0.07c-0.05-0.01-0.08-0.06-0.07-0.11
					c0.03-0.15,0.06-0.3,0.1-0.45c0.01-0.05,0.06-0.08,0.11-0.07C6.64,41.28,6.67,41.33,6.66,41.38L6.66,41.38z"/>
				<path class="st6" d="M6.49,42.27l-0.05,0.45l0,0c-0.01,0.05-0.05,0.08-0.1,0.08c-0.05-0.01-0.08-0.05-0.08-0.1l0.05-0.46
					c0.01-0.05,0.05-0.09,0.1-0.08C6.46,42.17,6.5,42.22,6.49,42.27L6.49,42.27L6.49,42.27z"/>
				<path class="st6" d="M6.41,43.17L6.4,43.62l0,0c0,0.05-0.04,0.09-0.09,0.09c-0.05,0-0.09-0.04-0.09-0.09l0.01-0.46
					c0-0.05,0.04-0.09,0.09-0.09C6.37,43.07,6.41,43.12,6.41,43.17L6.41,43.17L6.41,43.17z"/>
				<path class="st6" d="M6.42,44.07l0.04,0.45l0,0c0,0.05-0.03,0.09-0.08,0.1c-0.05,0-0.09-0.03-0.1-0.08l-0.04-0.46
					c0-0.05,0.03-0.09,0.08-0.1C6.37,43.98,6.41,44.02,6.42,44.07L6.42,44.07L6.42,44.07z"/>
				<path class="st6" d="M6.53,44.97l0.09,0.44l0,0c0.01,0.05-0.02,0.09-0.07,0.1c-0.05,0.01-0.09-0.02-0.1-0.07L6.35,45
					c-0.01-0.05,0.02-0.09,0.07-0.1C6.47,44.89,6.52,44.92,6.53,44.97L6.53,44.97L6.53,44.97z"/>
				<path class="st6" d="M6.74,45.85l0.14,0.43l0,0c0.02,0.05-0.01,0.09-0.05,0.11c-0.05,0.02-0.09-0.01-0.11-0.05L6.57,45.9
					c-0.02-0.05,0.01-0.1,0.05-0.11C6.67,45.77,6.72,45.8,6.74,45.85L6.74,45.85L6.74,45.85z"/>
				<path class="st6" d="M7.05,46.69l0.19,0.41l0,0c0.02,0.04,0,0.09-0.04,0.11c-0.04,0.02-0.09,0-0.11-0.04l-0.19-0.42
					c-0.02-0.04,0-0.09,0.04-0.11C6.97,46.63,7.02,46.65,7.05,46.69L7.05,46.69L7.05,46.69z"/>
				<path class="st6" d="M7.45,47.5l0.23,0.39l0,0c0.02,0.04,0.01,0.09-0.03,0.12c-0.04,0.02-0.09,0.01-0.12-0.03l-0.24-0.4
					c-0.02-0.04-0.01-0.09,0.03-0.12C7.37,47.45,7.42,47.46,7.45,47.5L7.45,47.5L7.45,47.5z"/>
				<path class="st6" d="M7.93,48.27l0.27,0.37l0,0c0.03,0.04,0.02,0.09-0.02,0.12c-0.04,0.03-0.09,0.02-0.12-0.02l-0.27-0.37
					c-0.03-0.04-0.02-0.09,0.02-0.12C7.84,48.22,7.9,48.23,7.93,48.27L7.93,48.27L7.93,48.27z"/>
				<path class="st6" d="M8.48,48.99l0.3,0.34l0,0c0.03,0.03,0.03,0.09-0.01,0.12c-0.03,0.03-0.09,0.03-0.12-0.01l-0.3-0.35
					c-0.03-0.03-0.03-0.09,0.01-0.12C8.39,48.95,8.44,48.95,8.48,48.99L8.48,48.99L8.48,48.99z"/>
				<path class="st6" d="M9.08,49.66l0.32,0.32l0,0c0.03,0.03,0.03,0.08,0,0.12c-0.03,0.03-0.08,0.03-0.12,0l-0.33-0.32
					c-0.03-0.03-0.03-0.08,0-0.12C9,49.63,9.05,49.63,9.08,49.66L9.08,49.66L9.08,49.66z"/>
				<path class="st6" d="M9.74,50.29l0.34,0.3l0,0c0.03,0.03,0.04,0.08,0.01,0.11s-0.08,0.04-0.11,0.01l-0.35-0.3
					c-0.03-0.03-0.04-0.08-0.01-0.12C9.65,50.26,9.7,50.26,9.74,50.29L9.74,50.29L9.74,50.29z"/>
				<path class="st6" d="M10.43,50.88l0.36,0.28l0,0c0.04,0.03,0.04,0.08,0.01,0.11c-0.03,0.04-0.08,0.04-0.11,0.01L10.33,51
					c-0.04-0.03-0.04-0.08-0.01-0.11C10.34,50.85,10.39,50.85,10.43,50.88L10.43,50.88L10.43,50.88z"/>
				<path class="st6" d="M11.15,51.42l0.37,0.26l0,0c0.04,0.03,0.04,0.07,0.02,0.11c-0.03,0.04-0.07,0.04-0.11,0.02l-0.38-0.26
					c-0.04-0.03-0.05-0.08-0.02-0.11C11.07,51.41,11.12,51.4,11.15,51.42L11.15,51.42L11.15,51.42z"/>
				<path class="st6" d="M11.91,51.94l0.38,0.25c0.04,0.02,0.05,0.07,0.02,0.11c-0.02,0.04-0.07,0.05-0.11,0.02l-0.38-0.25
					c-0.04-0.02-0.05-0.07-0.02-0.11C11.82,51.92,11.87,51.91,11.91,51.94L11.91,51.94z"/>
				<path class="st6" d="M12.67,52.44l0.38,0.25c0.04,0.02,0.05,0.07,0.02,0.11c-0.02,0.04-0.07,0.05-0.11,0.02l-0.38-0.25
					c-0.04-0.02-0.05-0.07-0.02-0.11C12.58,52.43,12.63,52.42,12.67,52.44L12.67,52.44z"/>
				<path class="st6" d="M13.43,52.94l0.38,0.25c0.04,0.02,0.05,0.07,0.02,0.11c-0.02,0.04-0.07,0.05-0.11,0.02l-0.38-0.25
					c-0.04-0.02-0.05-0.07-0.02-0.11C13.35,52.93,13.4,52.92,13.43,52.94L13.43,52.94z"/>
				<path class="st6" d="M14.2,53.44l0.38,0.25c0.03,0.02,0.04,0.07,0.02,0.11c-0.02,0.03-0.07,0.04-0.11,0.02l-0.38-0.25
					c-0.04-0.02-0.05-0.07-0.02-0.11C14.11,53.43,14.16,53.42,14.2,53.44L14.2,53.44z"/>
				<path class="st6" d="M14.96,53.95l0.38,0.26c0.03,0.02,0.04,0.07,0.02,0.1c-0.02,0.03-0.07,0.04-0.1,0.02l0,0l-0.38-0.26l0,0
					c-0.03-0.02-0.04-0.07-0.02-0.1C14.87,53.93,14.92,53.92,14.96,53.95L14.96,53.95z"/>
				<path class="st6" d="M15.71,54.46l0.37,0.26c0.03,0.02,0.04,0.07,0.02,0.1c-0.02,0.03-0.07,0.04-0.1,0.02l0,0l-0.37-0.26l0,0
					c-0.03-0.02-0.04-0.07-0.02-0.1C15.63,54.45,15.68,54.44,15.71,54.46L15.71,54.46z"/>
				<path class="st6" d="M16.45,54.99l0.37,0.27c0.03,0.02,0.04,0.07,0.02,0.1c-0.02,0.03-0.07,0.04-0.1,0.02l0,0l-0.37-0.27l0,0
					c-0.03-0.02-0.04-0.07-0.02-0.1C16.37,54.98,16.42,54.97,16.45,54.99L16.45,54.99z"/>
				<path class="st6" d="M17.19,55.54l0.36,0.28c0.03,0.02,0.04,0.07,0.01,0.1c-0.02,0.03-0.07,0.04-0.1,0.01l0,0l-0.36-0.28l0,0
					c-0.03-0.02-0.04-0.07-0.01-0.1C17.11,55.52,17.15,55.52,17.19,55.54L17.19,55.54z"/>
				<path class="st6" d="M17.9,56.11l0.35,0.29c0.03,0.03,0.03,0.07,0.01,0.1c-0.03,0.03-0.07,0.03-0.1,0.01l0,0l-0.35-0.29l0,0
					c-0.03-0.03-0.04-0.07-0.01-0.1C17.83,56.09,17.87,56.08,17.9,56.11L17.9,56.11z"/>
				<path class="st6" d="M18.6,56.69l0.34,0.3c0.03,0.03,0.03,0.07,0.01,0.1c-0.03,0.03-0.07,0.03-0.1,0.01l0,0l-0.34-0.3l0,0
					c-0.03-0.03-0.03-0.07-0.01-0.1C18.53,56.67,18.57,56.67,18.6,56.69L18.6,56.69z"/>
				<path class="st6" d="M19.29,57.3l0.33,0.31c0.03,0.03,0.03,0.07,0,0.1c-0.03,0.03-0.07,0.03-0.1,0l0,0l-0.33-0.31l0,0
					c-0.03-0.03-0.03-0.07,0-0.1C19.22,57.28,19.26,57.28,19.29,57.3L19.29,57.3z"/>
				<path class="st6" d="M19.95,57.94l0.32,0.33c0.03,0.03,0.03,0.07,0,0.1c-0.03,0.03-0.07,0.03-0.1,0l0,0l-0.32-0.33l0,0
					c-0.03-0.03-0.03-0.07,0-0.1S19.92,57.91,19.95,57.94L19.95,57.94z"/>
				<path class="st6" d="M20.57,58.61l0.3,0.35c0.02,0.03,0.02,0.07-0.01,0.1c-0.03,0.02-0.07,0.02-0.1-0.01l0,0l-0.29-0.35l0,0
					c-0.02-0.03-0.02-0.07,0.01-0.1C20.5,58.58,20.55,58.58,20.57,58.61L20.57,58.61z"/>
				<path class="st6" d="M21.15,59.32l0.27,0.37c0.02,0.03,0.02,0.07-0.01,0.09c-0.03,0.02-0.07,0.02-0.09-0.01l0,0l-0.27-0.37l0,0
					c-0.02-0.03-0.02-0.07,0.01-0.09C21.09,59.28,21.13,59.29,21.15,59.32L21.15,59.32z"/>
				<path class="st6" d="M21.68,60.07l0.24,0.39c0.02,0.03,0.01,0.07-0.02,0.09c-0.03,0.02-0.07,0.01-0.09-0.02l0,0l-0.23-0.39l0,0
					c-0.02-0.03-0.01-0.07,0.02-0.09C21.62,60.03,21.66,60.04,21.68,60.07L21.68,60.07z"/>
				<path class="st6" d="M22.13,60.87l0.19,0.42c0.01,0.03,0,0.07-0.03,0.09c-0.03,0.01-0.07,0-0.09-0.03l0,0l-0.19-0.41l0,0
					c-0.02-0.03,0-0.07,0.03-0.09C22.07,60.83,22.11,60.84,22.13,60.87L22.13,60.87z"/>
				<path class="st6" d="M22.49,61.72l0.14,0.44c0.01,0.03-0.01,0.07-0.04,0.08c-0.03,0.01-0.07-0.01-0.08-0.04l0,0l-0.14-0.43l0,0
					c-0.01-0.03,0.01-0.07,0.04-0.08C22.44,61.67,22.48,61.68,22.49,61.72L22.49,61.72z"/>
				<path class="st6" d="M22.75,62.6l0.09,0.45c0.01,0.03-0.01,0.06-0.05,0.07c-0.03,0.01-0.06-0.01-0.07-0.05l0,0l-0.09-0.44l0,0
					c-0.01-0.03,0.01-0.06,0.05-0.07C22.71,62.55,22.74,62.57,22.75,62.6L22.75,62.6z"/>
				<path class="st6" d="M22.89,63.51l0.03,0.46c0,0.03-0.02,0.06-0.05,0.06c-0.03,0-0.06-0.02-0.06-0.05l0,0l-0.03-0.45l0,0
					c0-0.03,0.02-0.06,0.05-0.06C22.86,63.45,22.89,63.48,22.89,63.51L22.89,63.51z"/>
				<path class="st6" d="M22.92,64.43l-0.03,0.46c0,0.03-0.03,0.05-0.06,0.05c-0.03,0-0.05-0.03-0.05-0.06l0,0l0.03-0.45l0,0
					c0-0.03,0.03-0.05,0.06-0.05C22.9,64.37,22.92,64.4,22.92,64.43L22.92,64.43z"/>
				<path class="st6" d="M22.83,65.34l-0.07,0.45c0,0.03-0.03,0.05-0.06,0.04c-0.03,0-0.05-0.03-0.04-0.06l0,0l0.07-0.45l0,0
					c0-0.03,0.03-0.05,0.06-0.04C22.81,65.28,22.83,65.31,22.83,65.34L22.83,65.34z"/>
				<path class="st6" d="M22.66,66.24l-0.12,0.44c-0.01,0.03-0.03,0.04-0.06,0.04c-0.03-0.01-0.04-0.03-0.04-0.06l0,0l0.11-0.44l0,0
					c0.01-0.03,0.03-0.04,0.06-0.04S22.67,66.21,22.66,66.24L22.66,66.24z"/>
				<path class="st6" d="M22.4,67.12l-0.17,0.43c-0.01,0.02-0.04,0.04-0.06,0.03c-0.02-0.01-0.04-0.04-0.03-0.06l0,0l0.17-0.42l0,0
					c0.01-0.02,0.04-0.04,0.06-0.03C22.4,67.07,22.41,67.1,22.4,67.12L22.4,67.12z"/>
				<path class="st6" d="M22.02,67.96c-0.08,0.13-0.17,0.26-0.26,0.38c-0.02,0.02-0.04,0.02-0.06,0.01
					c-0.02-0.02-0.02-0.04-0.01-0.06c0.09-0.12,0.18-0.24,0.25-0.37c0.01-0.02,0.04-0.03,0.06-0.02
					C22.02,67.91,22.03,67.94,22.02,67.96L22.02,67.96z"/>
				<path class="st6" d="M21.42,68.67c-0.12,0.1-0.26,0.18-0.41,0.23c-0.02,0.01-0.05,0-0.05-0.02c-0.01-0.02,0-0.05,0.02-0.05
					c0.14-0.05,0.27-0.13,0.38-0.22c0.02-0.01,0.05-0.01,0.06,0.01C21.45,68.63,21.44,68.65,21.42,68.67L21.42,68.67z"/>
			</g>
		</g>
		<g>
			<g>
				<linearGradient id="SVGID_40_" gradientUnits="userSpaceOnUse" x1="54.8158" y1="70.3861" x2="41.4304" y2="68.5813">
					<stop  offset="0" style="stop-color:#FF928E"/>
					<stop  offset="1" style="stop-color:#FEB3B1"/>
				</linearGradient>
				<path class="st46" d="M47.98,70.18c0,0-0.57-1.5-1.23-1.36c-0.66,0.14-1.39,0.65-1.39,0.65l-1.07,1.44c0,0,3,1.18,4.05,0.5
					c0,0,3.06,0.53,6.93-0.11c-0.56-1.18-0.89-2.37-1.09-3.28C52.22,69.13,50.11,69.96,47.98,70.18z"/>
				<linearGradient id="SVGID_41_" gradientUnits="userSpaceOnUse" x1="59.091" y1="61.1981" x2="59.7369" y2="77.6967">
					<stop  offset="0" style="stop-color:#FE7062"/>
					<stop  offset="1" style="stop-color:#FF928E"/>
				</linearGradient>
				<path class="st47" d="M64.2,59.31c0,0-4.39,5.52-10.03,8.72c0.2,0.92,0.53,2.1,1.09,3.28c2.93-0.48,6.31-1.63,9.18-4.17
					L64.2,59.31z"/>
			</g>
			<linearGradient id="SVGID_42_" gradientUnits="userSpaceOnUse" x1="5.5463" y1="72.4186" x2="39.9426" y2="72.4186">
				<stop  offset="0" style="stop-color:#020039"/>
				<stop  offset="1" style="stop-color:#090056"/>
			</linearGradient>
			<path class="st48" d="M5.63,61.85l8.71,21.89c0.44,1.11,1.59,1.78,2.78,1.61l22.83-1.69l-8.22-23.28
				c-0.22-0.58-0.78-0.95-1.39-0.94c-4,0.09-18.58,0.45-23.8,0.92C5.81,60.43,5.35,61.18,5.63,61.85z"/>
			<linearGradient id="SVGID_43_" gradientUnits="userSpaceOnUse" x1="9.6139" y1="62.7673" x2="37.361" y2="82.3933">
				<stop  offset="0" style="stop-color:#4042E2"/>
				<stop  offset="1" style="stop-color:#4F52FF"/>
			</linearGradient>
			<path class="st49" d="M16.34,84.36l-8.7-22.09c-0.18-0.45,0.15-0.93,0.63-0.94l21.5-0.82c0.55-0.02,1.06,0.31,1.26,0.83
				l7.87,21.53L16.34,84.36z"/>
			<linearGradient id="SVGID_44_" gradientUnits="userSpaceOnUse" x1="58.2572" y1="72.4186" x2="92.6535" y2="72.4186">
				<stop  offset="0" style="stop-color:#020039"/>
				<stop  offset="1" style="stop-color:#090056"/>
			</linearGradient>
			<path class="st50" d="M92.57,61.85l-8.71,21.89c-0.44,1.11-1.59,1.78-2.78,1.61l-22.83-1.6l8.22-23.37
				c0.22-0.58,0.78-0.95,1.39-0.94c4,0.09,18.58,0.45,23.8,0.92C92.39,60.43,92.85,61.18,92.57,61.85z"/>
			<linearGradient id="SVGID_45_" gradientUnits="userSpaceOnUse" x1="59.293" y1="72.4397" x2="90.6028" y2="72.4397">
				<stop  offset="0" style="stop-color:#4042E2"/>
				<stop  offset="1" style="stop-color:#4F52FF"/>
			</linearGradient>
			<path class="st51" d="M81.86,84.36l8.7-22.09c0.18-0.45-0.15-0.93-0.63-0.94l-21.5-0.82c-0.55-0.02-1.06,0.31-1.26,0.83
				l-7.87,21.53L81.86,84.36z"/>
			<linearGradient id="SVGID_46_" gradientUnits="userSpaceOnUse" x1="36.512" y1="59.9887" x2="30.758" y2="65.8601">
				<stop  offset="0" style="stop-color:#FE7062"/>
				<stop  offset="1" style="stop-color:#FF928E"/>
			</linearGradient>
			<path class="st52" d="M31.33,60.04l0.27,7.31c0.77,0.27,1.51,0.47,2.21,0.63c0.44-1.41,1.4-3.14,2.19-4.43
				C33.1,62.52,31.33,60.04,31.33,60.04z"/>
			<linearGradient id="SVGID_47_" gradientUnits="userSpaceOnUse" x1="40.3887" y1="41.8338" x2="40.3887" y2="58.1521">
				<stop  offset="0" style="stop-color:#FF928E"/>
				<stop  offset="1" style="stop-color:#FEB3B1"/>
			</linearGradient>
			<path class="st53" d="M45.84,59.91c-3.99,4.3-7.21,4.56-9.83,3.63c-0.79,1.29-1.76,3.02-2.19,4.43
				c10.64,2.35,13.15-7.44,13.15-7.44L45.84,59.91z"/>
			<linearGradient id="SVGID_48_" gradientUnits="userSpaceOnUse" x1="49.3585" y1="54.3856" x2="47.9297" y2="65.5903">
				<stop  offset="0" style="stop-color:#FF928E"/>
				<stop  offset="1" style="stop-color:#FEB3B1"/>
			</linearGradient>
			<path class="st54" d="M46.64,59.46c0,0,0.46-0.49,1.31-0.34c0.85,0.15,1.61,0.45,2.14,0c0.53-0.45,0.72,0.15,0.72,0.15l-1.59,1.2
				L46.64,59.46z"/>
			<linearGradient id="SVGID_49_" gradientUnits="userSpaceOnUse" x1="49.6132" y1="41.8338" x2="49.6132" y2="58.152">
				<stop  offset="0" style="stop-color:#FF928E"/>
				<stop  offset="1" style="stop-color:#FEB3B1"/>
			</linearGradient>
			<path class="st55" d="M45.7,60.3c0,0,0.31-1.32,1.26-1.13c0.95,0.18,3.1,1.35,3.65,1.13c0.55-0.22,1.26-0.73,1.63-0.55l-0.64,0.8
				c0,0,1.65-0.95,1.93-0.37l-2.74,1.54C50.79,61.72,46.78,61.32,45.7,60.3z"/>
			<linearGradient id="SVGID_50_" gradientUnits="userSpaceOnUse" x1="37.6515" y1="55.7903" x2="7.0046" y2="96.2125">
				<stop  offset="0" style="stop-color:#FE7062"/>
				<stop  offset="1" style="stop-color:#FF928E"/>
			</linearGradient>
			<path class="st56" d="M17.54,84.14c0,0-1.36-19.41,8.55-25.45c0,0,2.77-1.83,6.22,1.71c3.45,3.54,2.34,7.22-0.56,10.67
				c-2.9,3.45-5.85,9.61-5.15,13.06H17.54z"/>
			<linearGradient id="SVGID_51_" gradientUnits="userSpaceOnUse" x1="32.491" y1="54.5146" x2="26.9263" y2="63.5385">
				<stop  offset="0" style="stop-color:#FF928E"/>
				<stop  offset="0.531" style="stop-color:#FEA6A3"/>
				<stop  offset="1" style="stop-color:#FEB3B1"/>
			</linearGradient>
			<path class="st57" d="M31.08,53.4c0,0.23-3.3,4.92-3.3,4.92s0.59,1.17,3.42,2.11l2.44-5.02L31.08,53.4z"/>
			<linearGradient id="SVGID_52_" gradientUnits="userSpaceOnUse" x1="48.7013" y1="49.7836" x2="41.407" y2="66.0266">
				<stop  offset="0" style="stop-color:#FF928E"/>
				<stop  offset="1" style="stop-color:#FEB3B1"/>
			</linearGradient>
			<path class="st58" d="M29.79,69.5c0,0,6.26,5.24,13.03,2.96c0.42-0.14,0.88-0.11,1.27,0.1l1.94,1.03
				c0.82,0.43,1.83,0.15,2.3-0.64c0.27-0.45,0.5-0.97,0.55-1.46l-3.8-1.54l0.28-0.47c0,0-1.86-0.16-2.34,1.17
				c0,0-3.54,1.47-9.5-5.09C33.5,65.55,30.79,67.85,29.79,69.5z"/>
			<linearGradient id="SVGID_53_" gradientUnits="userSpaceOnUse" x1="25.4603" y1="67.017" x2="29.5884" y2="67.017">
				<stop  offset="0" style="stop-color:#E1473D"/>
				<stop  offset="1" style="stop-color:#E9605A"/>
			</linearGradient>
			<path class="st59" d="M29.45,69.48c-0.03,0-0.05-0.01-0.08-0.02c-2.64-1.79-3.89-4.67-3.9-4.7c-0.03-0.07,0-0.15,0.07-0.18
				c0.07-0.03,0.15,0,0.18,0.07c0.01,0.03,1.23,2.84,3.8,4.58c0.06,0.04,0.08,0.13,0.04,0.19C29.54,69.45,29.49,69.48,29.45,69.48z"
				/>
			<linearGradient id="SVGID_54_" gradientUnits="userSpaceOnUse" x1="26.4502" y1="62.4734" x2="33.5159" y2="62.4734">
				<stop  offset="0" style="stop-color:#E1473D"/>
				<stop  offset="1" style="stop-color:#E9605A"/>
			</linearGradient>
			<path class="st60" d="M33.38,65.49c-0.05,0-0.09-0.02-0.12-0.06c-0.01-0.01-0.81-1.27-2.35-4.02c-0.47-0.84-1.08-1.37-1.82-1.57
				c-1.23-0.34-2.42,0.32-2.43,0.32c-0.07,0.04-0.15,0.01-0.19-0.05c-0.04-0.07-0.01-0.15,0.05-0.19c0.05-0.03,1.3-0.72,2.64-0.35
				c0.82,0.23,1.49,0.8,1.99,1.71c1.53,2.74,2.33,3.99,2.34,4c0.04,0.06,0.02,0.15-0.04,0.19C33.43,65.48,33.4,65.49,33.38,65.49z"
				/>
			<g>
				<linearGradient id="SVGID_55_" gradientUnits="userSpaceOnUse" x1="37.6062" y1="48.5218" x2="29.4847" y2="57.2448">
					<stop  offset="0" style="stop-color:#FF928E"/>
					<stop  offset="1" style="stop-color:#FEB3B1"/>
				</linearGradient>
				<path class="st61" d="M33.68,50.71c0,0,1.17,2.7,1.25,4.11c0.08,1.42,0.38,2.33-1.25,2.62c-1.64,0.29-3.02-0.53-3.76-1.94
					c0,0-1.17-2.17-0.91-3.06C29.27,51.55,33.68,50.71,33.68,50.71z"/>
				<linearGradient id="SVGID_56_" gradientUnits="userSpaceOnUse" x1="29.2034" y1="49.0215" x2="35.4567" y2="57.0726">
					<stop  offset="0" style="stop-color:#020039"/>
					<stop  offset="1" style="stop-color:#090056"/>
				</linearGradient>
				<path class="st62" d="M30.48,54.49l0.09-0.04c0.12-0.05,0.17-0.19,0.11-0.31c-0.23-0.45-0.68-1.47-0.1-1.71
					c0.75-0.31,3.72-0.91,4.36-1.97c0.62-1.01,0.07-2.32-0.75-2.69c-0.05-0.02-0.12-0.01-0.15,0.05l-0.07,0.13
					c-0.05,0.09-0.18,0.08-0.21-0.02l0,0c-0.03-0.09-0.15-0.11-0.2-0.03c-0.2,0.32-0.73,0.83-2.15,1.09
					c-2.02,0.37-3.36,1.19-3.39,2.59c0,0.09-0.1,0.14-0.17,0.09c-0.15-0.09-0.39-0.13-0.71,0.13c-0.55,0.47-0.33,1.68,0.89,2.67
					c0.06,0.05,0.06,0.14-0.01,0.18c-0.22,0.14-0.55,0.49,0.3,0.94c0.88,0.47,1.54,0.43,1.79,0.39c0.06-0.01,0.1-0.07,0.09-0.13
					l-0.27-1.23c-0.02-0.07,0.04-0.14,0.11-0.14H30.48z"/>
				<linearGradient id="SVGID_57_" gradientUnits="userSpaceOnUse" x1="36.4144" y1="47.4121" x2="28.2929" y2="56.1352">
					<stop  offset="0" style="stop-color:#FF928E"/>
					<stop  offset="1" style="stop-color:#FEB3B1"/>
				</linearGradient>
				<path class="st63" d="M30.53,54.75c0,0-0.45-1.72-1.22-1.24c-0.77,0.48,0.4,1.93,1.02,2L30.53,54.75z"/>
			</g>
			<linearGradient id="SVGID_58_" gradientUnits="userSpaceOnUse" x1="43.5598" y1="68.0101" x2="47.1693" y2="76.8083">
				<stop  offset="0" style="stop-color:#FF928E"/>
				<stop  offset="1" style="stop-color:#FEB3B1"/>
			</linearGradient>
			<path class="st64" d="M44.08,72.55c0,0,1.59,1.56,1.9,1.33c0.11-0.08,0.39-0.37,0.65-0.7c0.19-0.23,0.21-0.56,0.05-0.8L46.3,71.8
				c-0.36-0.55-1.12-0.67-1.62-0.24C44.43,71.78,44.21,72.09,44.08,72.55z"/>
			<linearGradient id="SVGID_59_" gradientUnits="userSpaceOnUse" x1="64.2124" y1="67.0941" x2="88.6959" y2="80.1285">
				<stop  offset="0" style="stop-color:#FE7062"/>
				<stop  offset="1" style="stop-color:#FF928E"/>
			</linearGradient>
			<path class="st65" d="M69.16,83.85c0,0-0.01-6.99-4.08-14.22c-1.27-2.26-1.72-4.89-1.33-7.45l0.45-2.88c0,0,5.58-1.89,11.77-0.08
				c0,0,8.58,7.08,2.84,25.19L69.16,83.85z"/>
			<linearGradient id="SVGID_60_" gradientUnits="userSpaceOnUse" x1="68.2995" y1="48.3762" x2="68.2995" y2="64.3184">
				<stop  offset="0" style="stop-color:#FF928E"/>
				<stop  offset="1" style="stop-color:#FEB3B1"/>
			</linearGradient>
			<path class="st66" d="M65.15,55.64l1.45,3.48c0.09,0.22,0.29,0.38,0.52,0.42c0.83,0.14,2.85,0.37,4.18-0.5
				c0.16-0.1,0.2-0.32,0.09-0.47l-2.67-3.84L65.15,55.64z"/>
			<g>
				<path class="st1" d="M68.72,71.97c-0.2,0.05-0.3,0.28-0.2,0.46l4.19,8.03c0.07,0.14,0.23,0.2,0.37,0.16l13.69-3.95
					c0.17-0.05,0.27-0.23,0.22-0.4l-2.36-8.17c-0.05-0.17-0.22-0.27-0.39-0.22L68.72,71.97z"/>
				<linearGradient id="SVGID_61_" gradientUnits="userSpaceOnUse" x1="69.3441" y1="74.1087" x2="87.0211" y2="74.1087">
					<stop  offset="0" style="stop-color:#DAE3FE"/>
					<stop  offset="1" style="stop-color:#E9EFFD"/>
				</linearGradient>
				<path class="st67" d="M69.6,71.03c-0.2,0.05-0.31,0.25-0.24,0.44l3.35,9.1c0.06,0.17,0.24,0.26,0.41,0.21l13.65-3.94
					c0.17-0.05,0.27-0.22,0.24-0.39l-1.89-8.76c-0.04-0.18-0.22-0.3-0.41-0.26L69.6,71.03z"/>
				<linearGradient id="SVGID_62_" gradientUnits="userSpaceOnUse" x1="78.4607" y1="72.3526" x2="82.2184" y2="89.2034">
					<stop  offset="0" style="stop-color:#09005D"/>
					<stop  offset="1" style="stop-color:#1A0F91"/>
				</linearGradient>
				<path class="st68" d="M70.79,70.11c-0.24,0.04-0.4,0.27-0.34,0.5l2.28,9.83c0.05,0.23,0.29,0.37,0.52,0.31l13.45-3.88
					c0.22-0.06,0.34-0.29,0.29-0.5l-2.07-8.02c-0.05-0.21-0.25-0.34-0.47-0.31L70.79,70.11z"/>
			</g>
			<linearGradient id="SVGID_63_" gradientUnits="userSpaceOnUse" x1="67.306" y1="61.283" x2="91.7895" y2="74.3174">
				<stop  offset="0" style="stop-color:#FE7062"/>
				<stop  offset="1" style="stop-color:#FF928E"/>
			</linearGradient>
			<path class="st69" d="M81.68,73.86c1.04-7.88-5.03-13.95-5.03-13.95l-3.61,4.21c2.74,3.42,4.05,6.55,4.64,9.02
				C78.46,72.91,80.37,72.55,81.68,73.86z"/>
			<linearGradient id="SVGID_64_" gradientUnits="userSpaceOnUse" x1="71.5912" y1="66.6334" x2="79.1136" y2="70.6381">
				<stop  offset="0" style="stop-color:#E1473D"/>
				<stop  offset="1" style="stop-color:#E9605A"/>
			</linearGradient>
			<path class="st70" d="M77.67,73.24c-0.04,0-0.08-0.03-0.09-0.07c-0.74-3.05-2.3-6.08-4.63-8.98c-0.03-0.04-0.03-0.1,0.01-0.13
				c0.04-0.03,0.1-0.03,0.13,0.01c2.35,2.93,3.92,5.97,4.66,9.05c0.01,0.05-0.02,0.1-0.07,0.11C77.69,73.24,77.68,73.24,77.67,73.24
				z"/>
			<linearGradient id="SVGID_65_" gradientUnits="userSpaceOnUse" x1="79.5521" y1="74.2283" x2="73.8275" y2="85.2371">
				<stop  offset="0" style="stop-color:#FF928E"/>
				<stop  offset="1" style="stop-color:#FEB3B1"/>
			</linearGradient>
			<path class="st71" d="M77.67,73.14c0.55,2.29,0.5,4,0.41,4.81c-0.03,0.31-0.28,0.55-0.59,0.57c-0.35,0.02-0.83,0.06-1.25,0.08
				c-0.47,0.03-0.99-0.27-1.33-0.52c-0.18-0.13-0.41,0.07-0.31,0.26c0.26,0.51,0.92,0.96,1.37,1.22c0.16,0.1,0.13,0.34-0.05,0.4
				l-1.94,0.55c3.19,3,5.29-0.36,5.29-0.36c1.41-2.17,2.13-4.3,2.4-6.31C80.37,72.55,78.46,72.91,77.67,73.14z"/>
			<g>
				<linearGradient id="SVGID_66_" gradientUnits="userSpaceOnUse" x1="72.6142" y1="53.7728" x2="64.8687" y2="53.2464">
					<stop  offset="0" style="stop-color:#FF928E"/>
					<stop  offset="1" style="stop-color:#FEB3B1"/>
				</linearGradient>
				<path class="st72" d="M66.65,50.32c-0.06,0.06-2.56,4.97-2.56,4.97l2.84,1.37l3.07-4.31C69.99,52.35,67.66,49.36,66.65,50.32z"
					/>
				<linearGradient id="SVGID_67_" gradientUnits="userSpaceOnUse" x1="63.2934" y1="53.0252" x2="71.6353" y2="53.0252">
					<stop  offset="0" style="stop-color:#09005D"/>
					<stop  offset="1" style="stop-color:#1A0F91"/>
				</linearGradient>
				<path class="st73" d="M68.7,52.87l-1.42,2.36c-0.02,0.04-0.05,0.07-0.08,0.1c-0.17,0.16-0.75,0.61-1.19-0.01
					c-0.38-0.53-0.74-1.01-1.12-1.21c-0.22-0.12-0.5-0.02-0.61,0.2c-0.23,0.46-0.68,1.4-0.97,2.3c-0.07,0.22,0.04,0.46,0.26,0.55
					c0.57,0.23,1.71,0.65,2.72,0.79c0.17,0.02,0.33-0.05,0.43-0.18c0.43-0.59,1.66-2.25,2.07-2.67c0.39-0.39,1.1-0.24,1.43-0.15
					c0.12,0.04,0.25,0.02,0.36-0.05c0.33-0.2,0.9-0.69,0.38-1.52c-0.13-0.21-0.06-0.48,0.14-0.62c0.37-0.24,0.76-0.69,0.38-1.42
					c-0.38-0.74-1.06-0.81-1.53-0.75c-0.21,0.03-0.41-0.08-0.49-0.27c-0.04-0.09-0.1-0.16-0.23-0.18c-0.24-0.05-0.4-0.27-0.36-0.52
					c0.08-0.42,0.02-0.96-0.65-1.33c-1.22-0.67-2.3,0.42-2.57,1.35c-0.27,0.93,1.1,1.58,1.96,1.69c0.63,0.08,0.98,0.77,1.12,1.13
					C68.78,52.6,68.77,52.75,68.7,52.87z"/>
				
					<linearGradient id="SVGID_68_" gradientUnits="userSpaceOnUse" x1="2334.6006" y1="3393.6655" x2="2339.6787" y2="3388.4556" gradientTransform="matrix(-0.6854 -0.7281 -0.7281 0.6854 4140.061 -563.6522)">
					<stop  offset="0" style="stop-color:#FF928E"/>
					<stop  offset="1" style="stop-color:#FEB3B1"/>
				</linearGradient>
				<path class="st74" d="M68.26,55.97c0,0,0.54-1.59,1.24-1.53c0.7,0.06,1.25,0.75,0.38,1.53C68.81,56.94,68.26,55.97,68.26,55.97z
					"/>
			</g>
			<linearGradient id="SVGID_69_" gradientUnits="userSpaceOnUse" x1="31.425" y1="79.2165" x2="31.6598" y2="90.782">
				<stop  offset="0" style="stop-color:#020039"/>
				<stop  offset="1" style="stop-color:#090056"/>
			</linearGradient>
			<path class="st75" d="M47.71,84.65c0,0.41-0.33,0.74-0.74,0.74H16.94c-0.62,0-1.12-0.5-1.12-1.12l-0.47-0.55l31.18-0.27
				C47.18,83.45,47.71,83.99,47.71,84.65L47.71,84.65z"/>
			<linearGradient id="SVGID_70_" gradientUnits="userSpaceOnUse" x1="66.5589" y1="78.5031" x2="66.7938" y2="90.0697">
				<stop  offset="0" style="stop-color:#020039"/>
				<stop  offset="1" style="stop-color:#090056"/>
			</linearGradient>
			<path class="st76" d="M50.49,84.65c0,0.41,0.33,0.74,0.74,0.74h30.02c0.62,0,1.12-0.5,1.12-1.12l0.47-0.55l-31.18-0.27
				C51.02,83.45,50.49,83.99,50.49,84.65L50.49,84.65z"/>
		</g>
		<g>
			<g>
				<linearGradient id="SVGID_71_" gradientUnits="userSpaceOnUse" x1="6.9844" y1="77.4794" x2="10.2447" y2="73.6951">
					<stop  offset="0" style="stop-color:#E1473D"/>
					<stop  offset="1" style="stop-color:#E9605A"/>
				</linearGradient>
				<circle class="st77" cx="10.31" cy="73.62" r="2.43"/>
				<linearGradient id="SVGID_72_" gradientUnits="userSpaceOnUse" x1="12.0871" y1="70.9349" x2="2.446" y2="85.4997">
					<stop  offset="0" style="stop-color:#FE7062"/>
					<stop  offset="1" style="stop-color:#FF928E"/>
				</linearGradient>
				<circle class="st78" cx="10.31" cy="73.62" r="2.35"/>
				<path class="st29" d="M8.37,72.73c-0.01,0-0.03,0-0.04-0.01c-0.05-0.02-0.06-0.08-0.04-0.12c0.39-0.77,1.16-1.24,2.02-1.24
					c0.14,0,0.27,0.01,0.41,0.04c0.05,0.01,0.08,0.06,0.07,0.11c-0.01,0.05-0.06,0.08-0.11,0.07c-0.12-0.02-0.25-0.03-0.37-0.03
					c-0.79,0-1.5,0.44-1.86,1.14C8.44,72.72,8.41,72.73,8.37,72.73z"/>
				<circle class="st29" cx="10.36" cy="73.67" r="1.99"/>
				<g>
					<linearGradient id="SVGID_73_" gradientUnits="userSpaceOnUse" x1="11.7995" y1="71.3522" x2="6.6658" y2="79.9708">
						<stop  offset="0" style="stop-color:#FE7062"/>
						<stop  offset="1" style="stop-color:#FF928E"/>
					</linearGradient>
					<path class="st79" d="M10.17,75.15v-0.22c-0.23-0.01-0.45-0.06-0.61-0.13c-0.06-0.02-0.09-0.09-0.07-0.15l0.05-0.2
						c0.02-0.07,0.1-0.11,0.17-0.08c0.16,0.07,0.35,0.12,0.56,0.12c0.22,0,0.38-0.07,0.38-0.22c0-0.14-0.13-0.22-0.43-0.3
						c-0.43-0.12-0.74-0.31-0.74-0.68c0-0.34,0.25-0.6,0.68-0.67v-0.22c0-0.07,0.06-0.13,0.13-0.13h0.13c0.07,0,0.13,0.06,0.13,0.13
						v0.19c0.21,0.01,0.36,0.04,0.48,0.09c0.06,0.02,0.1,0.09,0.08,0.15l-0.05,0.19c-0.02,0.07-0.1,0.11-0.17,0.08
						c-0.11-0.04-0.27-0.09-0.47-0.09c-0.26,0-0.33,0.11-0.33,0.2c0,0.12,0.15,0.2,0.49,0.3c0.48,0.14,0.68,0.34,0.68,0.7
						c0,0.33-0.24,0.62-0.71,0.7v0.24c0,0.07-0.06,0.13-0.13,0.13h-0.13C10.22,75.27,10.17,75.22,10.17,75.15z"/>
				</g>
			</g>
			<g>
				<linearGradient id="SVGID_74_" gradientUnits="userSpaceOnUse" x1="11.4393" y1="77.4571" x2="17.1151" y2="70.8691">
					<stop  offset="0" style="stop-color:#E1473D"/>
					<stop  offset="1" style="stop-color:#E9605A"/>
				</linearGradient>
				<circle class="st80" cx="17.23" cy="70.74" r="4.23"/>
				<linearGradient id="SVGID_75_" gradientUnits="userSpaceOnUse" x1="20.3223" y1="66.0641" x2="3.5389" y2="91.419">
					<stop  offset="0" style="stop-color:#FE7062"/>
					<stop  offset="1" style="stop-color:#FF928E"/>
				</linearGradient>
				<circle class="st81" cx="17.23" cy="70.74" r="4.09"/>
				<path class="st29" d="M13.86,69.13c-0.01,0-0.03,0-0.04-0.01c-0.05-0.02-0.06-0.08-0.04-0.12c0.66-1.31,1.99-2.13,3.45-2.13
					c0.23,0,0.47,0.02,0.7,0.06c0.05,0.01,0.08,0.06,0.07,0.11c-0.01,0.05-0.06,0.08-0.11,0.07c-0.22-0.04-0.44-0.06-0.66-0.06
					c-1.4,0-2.66,0.78-3.29,2.03C13.92,69.11,13.89,69.13,13.86,69.13z"/>
				<circle class="st29" cx="17.32" cy="70.83" r="3.46"/>
				<g>
					<linearGradient id="SVGID_76_" gradientUnits="userSpaceOnUse" x1="19.8216" y1="66.7906" x2="10.8848" y2="81.794">
						<stop  offset="0" style="stop-color:#FE7062"/>
						<stop  offset="1" style="stop-color:#FF928E"/>
					</linearGradient>
					<path class="st82" d="M16.98,73.4v-0.38c-0.39-0.02-0.78-0.11-1.06-0.23c-0.1-0.04-0.15-0.15-0.12-0.26l0.1-0.35
						c0.04-0.13,0.18-0.2,0.3-0.14c0.27,0.11,0.61,0.21,0.98,0.21c0.38,0,0.66-0.13,0.66-0.39c0-0.24-0.22-0.38-0.74-0.52
						c-0.75-0.21-1.29-0.53-1.29-1.19c0-0.6,0.44-1.05,1.19-1.17v-0.38c0-0.12,0.1-0.22,0.22-0.22h0.22c0.12,0,0.22,0.1,0.22,0.22
						v0.34c0.36,0.01,0.63,0.08,0.84,0.15c0.11,0.04,0.17,0.15,0.14,0.26l-0.09,0.32c-0.03,0.13-0.17,0.19-0.29,0.15
						c-0.19-0.07-0.47-0.15-0.82-0.15c-0.45,0-0.58,0.19-0.58,0.35c0,0.21,0.27,0.35,0.85,0.53c0.83,0.25,1.18,0.6,1.18,1.22
						c0,0.57-0.42,1.08-1.24,1.21v0.42c0,0.12-0.1,0.22-0.22,0.22H17.2C17.08,73.62,16.98,73.52,16.98,73.4z"/>
				</g>
			</g>
			<g>
				<linearGradient id="SVGID_77_" gradientUnits="userSpaceOnUse" x1="14.1898" y1="87.1031" x2="20.0301" y2="80.3242">
					<stop  offset="0" style="stop-color:#E1473D"/>
					<stop  offset="1" style="stop-color:#E9605A"/>
				</linearGradient>
				<circle class="st83" cx="20.15" cy="80.19" r="4.35"/>
				<linearGradient id="SVGID_78_" gradientUnits="userSpaceOnUse" x1="23.3302" y1="75.38" x2="6.0603" y2="101.4698">
					<stop  offset="0" style="stop-color:#FE7062"/>
					<stop  offset="1" style="stop-color:#FF928E"/>
				</linearGradient>
				<circle class="st84" cx="20.15" cy="80.19" r="4.21"/>
				<path class="st29" d="M16.68,78.53c-0.01,0-0.03,0-0.04-0.01c-0.05-0.02-0.06-0.08-0.04-0.12c0.68-1.35,2.04-2.19,3.55-2.19
					c0.24,0,0.48,0.02,0.72,0.06c0.05,0.01,0.08,0.06,0.07,0.11c-0.01,0.05-0.06,0.08-0.11,0.07c-0.22-0.04-0.45-0.06-0.68-0.06
					c-1.44,0-2.74,0.8-3.39,2.09C16.74,78.51,16.71,78.53,16.68,78.53z"/>
				<circle class="st29" cx="20.24" cy="80.28" r="3.56"/>
				<g>
					<linearGradient id="SVGID_79_" gradientUnits="userSpaceOnUse" x1="22.815" y1="76.1275" x2="13.6192" y2="91.5658">
						<stop  offset="0" style="stop-color:#FE7062"/>
						<stop  offset="1" style="stop-color:#FF928E"/>
					</linearGradient>
					<path class="st85" d="M19.89,82.93v-0.39c-0.4-0.02-0.8-0.11-1.09-0.24c-0.1-0.04-0.15-0.16-0.12-0.26l0.1-0.36
						c0.04-0.13,0.18-0.2,0.31-0.15c0.28,0.12,0.63,0.21,1,0.21c0.39,0,0.68-0.13,0.68-0.4c0-0.24-0.22-0.39-0.77-0.53
						c-0.77-0.21-1.33-0.55-1.33-1.23c0-0.61,0.45-1.08,1.23-1.21v-0.39c0-0.12,0.1-0.23,0.23-0.23h0.23c0.12,0,0.23,0.1,0.23,0.23
						v0.35c0.37,0.01,0.65,0.08,0.86,0.15c0.11,0.04,0.17,0.16,0.14,0.27l-0.09,0.33c-0.03,0.13-0.17,0.2-0.3,0.15
						c-0.2-0.08-0.48-0.15-0.85-0.15c-0.46,0-0.59,0.19-0.59,0.36c0,0.21,0.28,0.36,0.88,0.54c0.86,0.26,1.21,0.61,1.21,1.25
						c0,0.59-0.44,1.11-1.28,1.25v0.43c0,0.12-0.1,0.23-0.23,0.23h-0.23C19.99,83.15,19.89,83.05,19.89,82.93z"/>
				</g>
			</g>
			<g>
				<linearGradient id="SVGID_80_" gradientUnits="userSpaceOnUse" x1="21.3682" y1="79.3233" x2="25.6474" y2="74.3564">
					<stop  offset="0" style="stop-color:#E1473D"/>
					<stop  offset="1" style="stop-color:#E9605A"/>
				</linearGradient>
				<circle class="st86" cx="25.73" cy="74.26" r="3.19"/>
				<linearGradient id="SVGID_81_" gradientUnits="userSpaceOnUse" x1="16.1217" y1="75.6956" x2="28.8296" y2="73.7925">
					<stop  offset="0" style="stop-color:#FE7062"/>
					<stop  offset="1" style="stop-color:#FF928E"/>
				</linearGradient>
				<circle class="st87" cx="25.73" cy="74.26" r="3.08"/>
				<path class="st29" d="M23.19,73.07c-0.01,0-0.03,0-0.04-0.01c-0.05-0.02-0.06-0.08-0.04-0.12c0.5-1,1.51-1.62,2.62-1.62
					c0.18,0,0.36,0.02,0.53,0.05c0.05,0.01,0.08,0.06,0.07,0.11c-0.01,0.05-0.06,0.08-0.11,0.07c-0.16-0.03-0.33-0.04-0.5-0.04
					c-1.05,0-1.99,0.58-2.46,1.52C23.26,73.05,23.22,73.07,23.19,73.07z"/>
				<circle class="st29" cx="25.8" cy="74.32" r="2.61"/>
				<g>
					<linearGradient id="SVGID_82_" gradientUnits="userSpaceOnUse" x1="27.6879" y1="71.2815" x2="20.9502" y2="82.593">
						<stop  offset="0" style="stop-color:#FE7062"/>
						<stop  offset="1" style="stop-color:#FF928E"/>
					</linearGradient>
					<path class="st88" d="M25.54,76.26v-0.28c-0.3-0.01-0.59-0.08-0.8-0.17c-0.07-0.03-0.11-0.12-0.09-0.19l0.07-0.26
						c0.03-0.1,0.13-0.15,0.22-0.11c0.21,0.09,0.46,0.15,0.74,0.15c0.29,0,0.5-0.1,0.5-0.29c0-0.18-0.16-0.29-0.56-0.39
						c-0.57-0.15-0.97-0.4-0.97-0.9c0-0.45,0.33-0.79,0.9-0.88v-0.28c0-0.09,0.07-0.17,0.17-0.17h0.17c0.09,0,0.17,0.07,0.17,0.17
						v0.25c0.27,0.01,0.47,0.06,0.63,0.11c0.08,0.03,0.13,0.12,0.1,0.2l-0.07,0.24c-0.03,0.09-0.13,0.15-0.22,0.11
						c-0.15-0.06-0.35-0.11-0.62-0.11c-0.34,0-0.43,0.14-0.43,0.27c0,0.15,0.2,0.26,0.64,0.4c0.63,0.19,0.89,0.45,0.89,0.92
						c0,0.43-0.32,0.82-0.94,0.91v0.32c0,0.09-0.07,0.17-0.17,0.17h-0.17C25.62,76.43,25.54,76.36,25.54,76.26z"/>
				</g>
			</g>
		</g>
		<g>
			<path class="st4" d="M75.82,62.68c-0.21-0.07-0.18-0.38,0.04-0.41c1.01-0.13,2.48-0.52,2.96-1.7c0.76-1.85-0.81-8.99,6.4-10.27
				c6.65-1.18,10.36,0.93,10.27,7.07C95.42,63.32,85.84,66.12,75.82,62.68z"/>
			<g>
				<rect x="80.96" y="56.08" class="st1" width="0.65" height="5.05"/>
				<rect x="82.03" y="57.81" class="st1" width="0.65" height="3.31"/>
				<rect x="83.11" y="53.53" class="st1" width="0.65" height="7.6"/>
				<rect x="84.19" y="59.3" class="st1" width="0.65" height="1.83"/>
				<rect x="85.27" y="54.54" class="st1" width="0.65" height="6.58"/>
				<rect x="86.35" y="55.68" class="st1" width="0.65" height="5.44"/>
				<rect x="87.42" y="56.92" class="st1" width="0.65" height="4.21"/>
				<rect x="88.5" y="51.99" class="st1" width="0.65" height="9.14"/>
				<rect x="89.58" y="52.96" class="st1" width="0.65" height="8.17"/>
				<rect x="90.66" y="54.42" class="st1" width="0.65" height="6.71"/>
				<rect x="91.74" y="59.47" class="st1" width="0.65" height="1.66"/>
			</g>
		</g>
	</g>
</g>
</svg>
