<?xml version="1.0" encoding="utf-8"?>
<!-- Generator: Adobe Illustrator 24.0.2, SVG Export Plug-In . SVG Version: 6.00 Build 0)  -->
<svg version="1.1" id="Слой_1" xmlns="http://www.w3.org/2000/svg" xmlns:xlink="http://www.w3.org/1999/xlink" x="0px" y="0px"
	 viewBox="0 0 100 100" style="enable-background:new 0 0 100 100;" xml:space="preserve">
<style type="text/css">
	.st0{fill:#8DBDE3;}
	.st1{fill:#706865;}
	.st2{fill:#FFFFFF;}
	.st3{fill:#C9C9C9;}
	.st4{fill:#E2D2CA;}
	.st5{fill:#CCBDB7;}
	.st6{fill:#FFAA55;}
	.st7{fill:#B59074;}
	.st8{fill:#D44040;}
	.st9{fill:#EAD8CF;}
	.st10{fill:#DA9B5B;}
	.st11{fill:#424773;}
	.st12{fill:#292C47;}
	.st13{fill:#EEA886;}
	.st14{fill:#3A3F47;}
	.st15{fill:#323657;}
	.st16{fill:#918783;}
	.st17{fill:#5E5854;}
	.st18{fill:#BFB2AC;}
	.st19{fill:#254380;}
	.st20{fill:url(#SVGID_1_);}
	.st21{fill:#F5F7FF;}
	.st22{fill:#FFC655;}
	.st23{fill:#DFE1E8;}
</style>
<g>
	<g>
		<path class="st0" d="M56.28,56.03L23.25,56.2c-1.37,0.01-2.49-1.1-2.5-2.48l-0.11-21.74c-0.01-1.37,1.1-2.49,2.48-2.5l33.03-0.17
			c1.37-0.01,2.49,1.1,2.5,2.48l0.11,21.74C58.76,54.9,57.65,56.02,56.28,56.03z"/>
		
			<rect x="35.06" y="29.01" transform="matrix(1 -5.144594e-03 5.144594e-03 1 -0.1541 0.2046)" class="st1" width="9.27" height="2.09"/>
		<g>
			<g>
				<path class="st2" d="M30.44,34.67c0,0,0.01,6.07-0.65,8.51l-1.43,0.9l-5.05,0.03c0.95-2.56,0.93-9.41,0.93-9.41L30.44,34.67z"/>
				<polygon class="st3" points="28.36,44.08 28.35,43.16 29.79,43.15 				"/>
			</g>
		</g>
		<g>
			<g>
				<path class="st2" d="M36.54,33.17c0,0,0.01,4.2-0.45,5.89l-0.99,0.63l-3.49,0.02c0.65-1.77,0.65-6.51,0.65-6.51L36.54,33.17z"/>
				<polygon class="st3" points="35.11,39.68 35.1,39.05 36.09,39.04 				"/>
			</g>
		</g>
		<g>
			<g>
				<path class="st2" d="M36.32,42.31c0,0,0,3.1-0.38,4.34l-0.83,0.46l-2.93,0.02c0.55-1.31,0.55-4.8,0.55-4.8L36.32,42.31z"/>
				<polygon class="st3" points="35.11,47.12 35.11,46.65 35.94,46.64 				"/>
			</g>
		</g>
		<g>
			<g>
				<rect x="23.54" y="49.51" class="st2" width="8.84" height="0.46"/>
			</g>
			<g>
				<rect x="23.54" y="52.7" class="st2" width="10.19" height="0.46"/>
			</g>
			<g>
				<rect x="23.54" y="51.11" class="st2" width="6.28" height="0.46"/>
			</g>
		</g>
	</g>
	<g>
		<g>
			
				<rect x="52.29" y="63.06" transform="matrix(-1 -1.224647e-16 1.224647e-16 -1 114.7585 126.7318)" class="st4" width="10.17" height="0.6"/>
		</g>
		<g>
			<rect x="60.21" y="65.24" class="st1" width="0.89" height="27.46"/>
		</g>
		<g>
			
				<rect x="46.81" y="62.89" transform="matrix(-1 -1.224647e-16 1.224647e-16 -1 100.6999 126.6478)" class="st5" width="7.07" height="0.86"/>
		</g>
		<g>
			
				<rect x="49.01" y="55.54" transform="matrix(-1 -1.224647e-16 1.224647e-16 -1 100.6999 119.2032)" class="st6" width="2.68" height="8.13"/>
		</g>
		<g>
			
				<rect x="26.94" y="63.68" transform="matrix(-1 -1.224647e-16 1.224647e-16 -1 93.0532 128.9171)" class="st7" width="39.18" height="1.56"/>
		</g>
		<g>
			<path class="st8" d="M73.63,54.23c0,0,0.43,6.01-0.75,6.73c-0.74,0.45-3.67,1.97-3.58,2.25c0.09,0.28,1.66,2.54,1.66,2.54
				s5.63-3.71,5.81-4.88c0.18-1.14-0.28-8.8-1.05-9.15c-0.58-0.26-0.89-0.05-1.62,0.5C73.08,52.97,73.63,54.23,73.63,54.23z"/>
		</g>
		<g>
			<g>
				<g>
					<path class="st9" d="M63.37,55.94l-0.5-0.18c0,0,0.62-1.45,0.89-1.42c0.31,0.04,0.7,0.14,0.7,0.14L63.37,55.94z"/>
				</g>
			</g>
		</g>
		<g>
			<g>
				<g>
					<path class="st10" d="M63.25,56.19c0.06-0.05,1.06-1.95,1.06-1.95l2.12,0.29l-1.15,2.25L63.25,56.19z"/>
				</g>
			</g>
		</g>
		<g>
			<g>
				<g>
					<path class="st11" d="M66.7,88.95c0,0,0.18,1.22,0.2,1.4c0.02,0.18,1.95-0.11,1.95-0.11L69,88.79
						C69,88.79,66.94,88.78,66.7,88.95z"/>
				</g>
			</g>
		</g>
		<g>
			<g>
				<g>
					<path class="st12" d="M66.88,90.19c0,0-0.61,0.73-1.2,1.05c-0.59,0.32-1.52,0.45-1.87,0.78c-0.25,0.24-0.92,1.27,1.53,1.24
						c2.45-0.02,3.63,0.15,3.9-0.25c0.26-0.39-0.38-2.91-0.38-2.91S68.28,90.32,66.88,90.19z"/>
				</g>
			</g>
		</g>
		<g>
			<g>
				<g>
					<path class="st11" d="M54.36,88.96c0,0,0.18,1.22,0.2,1.4c0.02,0.18,1.95-0.11,1.95-0.11l0.16-1.45
						C56.66,88.81,54.6,88.79,54.36,88.96z"/>
				</g>
			</g>
		</g>
		<g>
			<g>
				<g>
					<path class="st12" d="M54.54,90.21c0,0-0.61,0.73-1.2,1.05c-0.59,0.32-2.76,0.58-3.11,0.91c-0.25,0.24-0.67,1.2,2.78,1.11
						c2.45-0.06,3.63,0.15,3.9-0.25c0.26-0.39-0.38-2.91-0.38-2.91S55.97,90.35,54.54,90.21z"/>
				</g>
			</g>
		</g>
		<g>
			<g>
				<g>
					<path class="st12" d="M72.92,67.95c0,0-7,1.19-8.59,1.43c-1.58,0.25-10.16,2.38-11.23,3.03c-0.85,0.52,0.45,12.95,0.75,17.7
						h3.38l0.24-14.23c4.05,0.1,6.95-0.95,9.9-0.5c2.95,0.45,5.41,1.09,7.29-1.43C74.66,73.95,74.73,68.5,72.92,67.95z"/>
				</g>
			</g>
		</g>
		<g>
			<g>
				<g>
					<path class="st12" d="M66.01,90.12l3.29-0.2l0.32-14.04c1.75,0.04,2.34-0.07,3.76-0.24l2.66-6.18
						c-2.33,0.47-9.79,2.35-10.79,2.95C64.4,72.93,65.71,85.38,66.01,90.12z"/>
				</g>
			</g>
		</g>
		<g>
			<g>
				<g>
					<path class="st13" d="M69.69,41.69c0,0-2.57-0.71-3.55,1.28c-0.98,1.99-0.54,5.77,0.76,6.13c1.29,0.36,3.15-0.05,3.69-1.29
						c0.54-1.24,0.97-3,0.84-4.14C71.3,42.52,70.37,41.97,69.69,41.69z"/>
				</g>
			</g>
		</g>
		<g>
			<g>
				<g>
					<path class="st13" d="M67.57,48.71c0,0,0.03,1.52-0.14,1.84s3.58,0.24,3.58,0.24s-0.59-1.82-0.26-3.37
						C71.09,45.88,67.57,48.71,67.57,48.71z"/>
				</g>
			</g>
		</g>
		<g>
			<g>
				<g>
					<path class="st14" d="M70.96,46.84c0,0-0.2,0.41-1.17,0.34c-0.97-0.07-2.25-1.23-2.66-1.34c-0.41-0.1-0.44-0.34-0.44-0.34
						l-0.22,0.39l-0.42,0.06c0,0,0.29-1.17-0.34-1.58c-0.62-0.41,0.28-3.73,3.44-2.93c0,0,2.41,0.44,2.44,1.79
						C71.63,44.58,71.43,46.13,70.96,46.84z"/>
				</g>
			</g>
		</g>
		<g>
			<g>
				<g>
					<path class="st4" d="M67.24,50.51c0,0,0.01-0.62,0.29-0.68c0.28-0.06,2.94-0.43,3.29-0.29l0.15,0.82
						C70.96,50.36,70.3,50.76,67.24,50.51z"/>
				</g>
			</g>
		</g>
		<g>
			<g>
				<g>
					<path class="st13" d="M66.47,45.23c0.07-0.51,0.65-1.09,0.98-0.3c0.33,0.79-0.22,1.94-0.59,1.87
						C66.48,46.75,66.37,45.92,66.47,45.23z"/>
				</g>
			</g>
		</g>
		<g>
			<g>
				<g>
					<path class="st15" d="M56.09,57.8C56.09,57.8,56.09,57.8,56.09,57.8C56.07,57.81,56.07,57.81,56.09,57.8z"/>
				</g>
			</g>
		</g>
		<g>
			<g>
				<g>
					<path class="st14" d="M70.44,42.06c0,0,3.13-0.15,0.55,4.74L70.44,42.06z"/>
				</g>
			</g>
		</g>
		<g>
			<g>
				<polygon class="st16" points="77.42,91.79 77.18,92.44 67.34,89.39 67.82,88.07 				"/>
			</g>
		</g>
		<g>
			<g>
				
					<rect x="67.01" y="78.23" transform="matrix(-1 -1.224647e-16 1.224647e-16 -1 135.1307 167.1582)" class="st16" width="1.12" height="10.7"/>
			</g>
		</g>
		<g>
			<g>
				
					<rect x="64.27" y="77.66" transform="matrix(-1 -1.224647e-16 1.224647e-16 -1 135.1307 155.9534)" class="st17" width="6.6" height="0.63"/>
			</g>
		</g>
		<g>
			<g>
				<polygon class="st16" points="57.63,91.79 57.86,92.44 67.7,89.39 67.27,87.99 				"/>
			</g>
		</g>
		<g>
			<g>
				<polygon class="st16" points="64.56,92.37 64.56,93.14 67.7,89.39 67.27,87.99 				"/>
			</g>
		</g>
		<g>
			<g>
				<path class="st18" d="M56.71,92.7c0,0.51,0.41,0.92,0.92,0.92c0.51,0,0.92-0.41,0.92-0.92s-0.41-0.92-0.92-0.92
					C57.12,91.78,56.71,92.19,56.71,92.7z"/>
			</g>
		</g>
		<g>
			<g>
				<path class="st18" d="M64.48,92.7c0,0.51,0.41,0.92,0.92,0.92c0.51,0,0.92-0.41,0.92-0.92s-0.41-0.92-0.92-0.92
					C64.89,91.78,64.48,92.19,64.48,92.7z"/>
			</g>
		</g>
		<g>
			<g>
				<path class="st18" d="M76.5,92.7c0,0.51,0.41,0.92,0.92,0.92c0.51,0,0.92-0.41,0.92-0.92s-0.41-0.92-0.92-0.92
					C76.91,91.78,76.5,92.19,76.5,92.7z"/>
			</g>
		</g>
		<g>
			<path class="st19" d="M60.9,77.66h13.24c0.66,0,1.19-0.53,1.19-1.19v0c0-0.66-0.53-1.19-1.19-1.19H60.9
				c-0.66,0-1.19,0.53-1.19,1.19v0C59.71,77.13,60.24,77.66,60.9,77.66z"/>
		</g>
		<g>
			
				<rect x="31.95" y="65.24" transform="matrix(-1 -1.224647e-16 1.224647e-16 -1 64.7938 157.9393)" class="st1" width="0.89" height="27.46"/>
		</g>
		<g>
			<linearGradient id="SVGID_1_" gradientUnits="userSpaceOnUse" x1="38.79" y1="51.2979" x2="61.9098" y2="51.2979">
				<stop  offset="0" style="stop-color:#FF9F55"/>
				<stop  offset="1" style="stop-color:#FFD255"/>
			</linearGradient>
			<path class="st20" d="M46.94,59.45h6.81c4.5,0,8.15-3.65,8.15-8.15v0c0-4.5-3.65-8.15-8.15-8.15h-6.81
				c-4.5,0-8.15,3.65-8.15,8.15v0C38.79,55.8,42.44,59.45,46.94,59.45z"/>
		</g>
		<g>
			
				<rect x="39.7" y="44.02" transform="matrix(-1 -1.224647e-16 1.224647e-16 -1 100.6999 100.9215)" class="st21" width="21.31" height="12.87"/>
		</g>
		<g>
			<path class="st22" d="M45.56,63.7v-0.29c0,0,0.41-1.81,3.29-1.81c2.89,0,2.83,2.1,2.83,2.1H45.56z"/>
		</g>
		<g>
			<g>
				<path class="st13" d="M51.72,61.87c0,0-0.63-0.05-0.86-0.19c-0.23-0.14-1.6-1.06-1.93-0.91c-0.32,0.15-2.47,0.81-2.4,1.12
					c0.07,0.31,0.27,0.28,0.42,0.23c0.15-0.06,1.71-0.38,1.85-0.33c0,0-1.53,0.56-1.54,0.97c-0.01,0.41,0.32,0.51,0.47,0.66
					c0.15,0.15,0.32,0.54,0.71,0.57c0.39,0.03,2.32-0.64,2.72-0.67c0.4-0.03,1.13,0.02,1.18-0.04
					C52.41,63.21,51.72,61.87,51.72,61.87z"/>
			</g>
		</g>
		<g>
			<g>
				<g>
					<path class="st8" d="M63.14,51.36c2-0.35,4.1-0.86,4.1-0.86l3.72-0.15c0,0,3.42,0.75,4.76,1.36c0.13,0.06,0.13,3.05,0.48,3.83
						l-1.12,2.35c0,0-0.64,4.66-0.78,6.74c-0.06,0.95,0.17,9.2,0.17,9.2s-0.33,0.17-2.88,0.45c-2.54,0.28-8.89-0.1-8.93-0.4
						c-0.04-0.3,1.23-11.18,1.29-11.74c0.09-0.86-0.25-4.86-0.25-4.86c-0.48,0.64-1.7,3.55-2.97,4.93
						c-0.75,0.81-4.45,1.31-5.15,1.33c-1.52,0.05-4.29,0.35-4.38,0.21c-0.06-0.09-0.24-2.46-0.07-2.52c0.15-0.05,5.3-0.35,6.62-1.05
						c0.48-0.26,1.93-3.4,1.93-3.4S62.03,51.86,63.14,51.36z"/>
				</g>
			</g>
		</g>
		<g>
			<path class="st19" d="M73.6,73.6L73.6,73.6c2.98,0,5.39-2.41,5.39-5.39v-4.15c0-2.98-2.41-5.39-5.39-5.39h0
				c-2.98,0-5.39,2.41-5.39,5.39v4.15C68.21,71.19,70.62,73.6,73.6,73.6z"/>
		</g>
		<g>
			<path class="st19" d="M70.12,77.07c1.59,0,2.88-0.53,3.83-1.59c2.15-2.38,1.77-6.56,1.75-6.74c-0.03-0.33-0.33-0.57-0.66-0.54
				c-0.33,0.03-0.57,0.33-0.54,0.66c0,0.05,0.35,3.84-1.45,5.82c-0.73,0.8-1.69,1.19-2.94,1.19c-0.33,0-0.6,0.27-0.6,0.6
				C69.52,76.8,69.79,77.07,70.12,77.07z"/>
		</g>
		<g>
			<g>
				<g>
					<path class="st23" d="M53.59,45.73h5.56c0.19,0,0.34-0.15,0.34-0.34v0c0-0.19-0.15-0.34-0.34-0.34h-5.56
						c-0.19,0-0.34,0.15-0.34,0.34l0,0C53.25,45.58,53.4,45.73,53.59,45.73z"/>
				</g>
			</g>
		</g>
		<g>
			<g>
				<g>
					<path class="st23" d="M53.59,47.19h5.56c0.19,0,0.34-0.15,0.34-0.34v0c0-0.19-0.15-0.34-0.34-0.34h-5.56
						c-0.19,0-0.34,0.15-0.34,0.34l0,0C53.25,47.04,53.4,47.19,53.59,47.19z"/>
				</g>
			</g>
		</g>
		<g>
			<g>
				<g>
					<path class="st23" d="M56.37,55.87L56.37,55.87c1.72,0,3.12-1.4,3.12-3.12V51.3c0-1.72-1.4-3.12-3.12-3.12h0
						c-1.72,0-3.12,1.4-3.12,3.12v1.45C53.25,54.47,54.65,55.87,56.37,55.87z"/>
				</g>
			</g>
		</g>
		<g>
			<g>
				<g>
					<path class="st23" d="M46.29,55.87h0.29c2.99,0,5.41-2.42,5.41-5.41v0c0-2.99-2.42-5.41-5.41-5.41h-0.29
						c-2.99,0-5.41,2.42-5.41,5.41v0C40.88,53.45,43.3,55.87,46.29,55.87z"/>
				</g>
			</g>
		</g>
	</g>
</g>
</svg>
